<svg width="68" height="68" viewBox="0 0 68 68" fill="none" xmlns="http://www.w3.org/2000/svg">
<rect width="68" height="68" rx="5" fill="white"/>
<path d="M21.8358 7.2428H20.2144V8.86418H21.8358V7.2428Z" fill="#000055"/>
<path d="M23.4569 7.2428H21.8354V8.86418H23.4569V7.2428Z" fill="#000055"/>
<path d="M25.0785 7.2428H23.457V8.86418H25.0785V7.2428Z" fill="#000055"/>
<path d="M26.7 7.2428H25.0786V8.86418H26.7V7.2428Z" fill="#000055"/>
<path d="M29.9427 7.2428H28.3213V8.86418H29.9427V7.2428Z" fill="#000055"/>
<path d="M31.5643 7.2428H29.9429V8.86418H31.5643V7.2428Z" fill="#000055"/>
<path d="M34.807 7.2428H33.1855V8.86418H34.807V7.2428Z" fill="#000055"/>
<path d="M38.0496 7.2428H36.4282V8.86418H38.0496V7.2428Z" fill="#000055"/>
<path d="M44.5355 7.2428H42.9141V8.86418H44.5355V7.2428Z" fill="#000055"/>
<path d="M21.8358 8.86414H20.2144V10.4855H21.8358V8.86414Z" fill="#000055"/>
<path d="M25.0785 8.86414H23.457V10.4855H25.0785V8.86414Z" fill="#000055"/>
<path d="M26.7 8.86414H25.0786V10.4855H26.7V8.86414Z" fill="#000055"/>
<path d="M28.3211 8.86414H26.6997V10.4855H28.3211V8.86414Z" fill="#000055"/>
<path d="M29.9427 8.86414H28.3213V10.4855H29.9427V8.86414Z" fill="#000055"/>
<path d="M31.5643 8.86414H29.9429V10.4855H31.5643V8.86414Z" fill="#000055"/>
<path d="M36.4285 8.86414H34.8071V10.4855H36.4285V8.86414Z" fill="#000055"/>
<path d="M39.6712 8.86414H38.0498V10.4855H39.6712V8.86414Z" fill="#000055"/>
<path d="M47.7782 8.86414H46.1567V10.4855H47.7782V8.86414Z" fill="#000055"/>
<path d="M21.8358 10.4855H20.2144V12.1069H21.8358V10.4855Z" fill="#000055"/>
<path d="M23.4569 10.4855H21.8354V12.1069H23.4569V10.4855Z" fill="#000055"/>
<path d="M29.9427 10.4855H28.3213V12.1069H29.9427V10.4855Z" fill="#000055"/>
<path d="M31.5643 10.4855H29.9429V12.1069H31.5643V10.4855Z" fill="#000055"/>
<path d="M33.1854 10.4855H31.564V12.1069H33.1854V10.4855Z" fill="#000055"/>
<path d="M34.807 10.4855H33.1855V12.1069H34.807V10.4855Z" fill="#000055"/>
<path d="M41.2928 10.4855H39.6714V12.1069H41.2928V10.4855Z" fill="#000055"/>
<path d="M42.9139 10.4855H41.2925V12.1069H42.9139V10.4855Z" fill="#000055"/>
<path d="M46.1571 10.4855H44.5356V12.1069H46.1571V10.4855Z" fill="#000055"/>
<path d="M28.3211 12.1069H26.6997V13.7283H28.3211V12.1069Z" fill="#000055"/>
<path d="M31.5643 12.1069H29.9429V13.7283H31.5643V12.1069Z" fill="#000055"/>
<path d="M34.807 12.1069H33.1855V13.7283H34.807V12.1069Z" fill="#000055"/>
<path d="M36.4285 12.1069H34.8071V13.7283H36.4285V12.1069Z" fill="#000055"/>
<path d="M39.6712 12.1069H38.0498V13.7283H39.6712V12.1069Z" fill="#000055"/>
<path d="M42.9139 12.1069H41.2925V13.7283H42.9139V12.1069Z" fill="#000055"/>
<path d="M44.5355 12.1069H42.9141V13.7283H44.5355V12.1069Z" fill="#000055"/>
<path d="M46.1571 12.1069H44.5356V13.7283H46.1571V12.1069Z" fill="#000055"/>
<path d="M21.8358 13.7283H20.2144V15.3497H21.8358V13.7283Z" fill="#000055"/>
<path d="M25.0785 13.7283H23.457V15.3497H25.0785V13.7283Z" fill="#000055"/>
<path d="M28.3211 13.7283H26.6997V15.3497H28.3211V13.7283Z" fill="#000055"/>
<path d="M29.9427 13.7283H28.3213V15.3497H29.9427V13.7283Z" fill="#000055"/>
<path d="M33.1854 13.7283H31.564V15.3497H33.1854V13.7283Z" fill="#000055"/>
<path d="M34.807 13.7283H33.1855V15.3497H34.807V13.7283Z" fill="#000055"/>
<path d="M38.0496 13.7283H36.4282V15.3497H38.0496V13.7283Z" fill="#000055"/>
<path d="M39.6712 13.7283H38.0498V15.3497H39.6712V13.7283Z" fill="#000055"/>
<path d="M41.2928 13.7283H39.6714V15.3497H41.2928V13.7283Z" fill="#000055"/>
<path d="M42.9139 13.7283H41.2925V15.3497H42.9139V13.7283Z" fill="#000055"/>
<path d="M44.5355 13.7283H42.9141V15.3497H44.5355V13.7283Z" fill="#000055"/>
<path d="M47.7782 13.7283H46.1567V15.3497H47.7782V13.7283Z" fill="#000055"/>
<path d="M23.4569 15.3497H21.8354V16.9711H23.4569V15.3497Z" fill="#000055"/>
<path d="M26.7 15.3497H25.0786V16.9711H26.7V15.3497Z" fill="#000055"/>
<path d="M29.9427 15.3497H28.3213V16.9711H29.9427V15.3497Z" fill="#000055"/>
<path d="M31.5643 15.3497H29.9429V16.9711H31.5643V15.3497Z" fill="#000055"/>
<path d="M33.1854 15.3497H31.564V16.9711H33.1854V15.3497Z" fill="#000055"/>
<path d="M34.807 15.3497H33.1855V16.9711H34.807V15.3497Z" fill="#000055"/>
<path d="M36.4285 15.3497H34.8071V16.9711H36.4285V15.3497Z" fill="#000055"/>
<path d="M44.5355 15.3497H42.9141V16.9711H44.5355V15.3497Z" fill="#000055"/>
<path d="M46.1571 15.3497H44.5356V16.9711H46.1571V15.3497Z" fill="#000055"/>
<path d="M47.7782 15.3497H46.1567V16.9711H47.7782V15.3497Z" fill="#000055"/>
<path d="M21.8358 16.9711H20.2144V18.5925H21.8358V16.9711Z" fill="#000055"/>
<path d="M25.0785 16.9711H23.457V18.5925H25.0785V16.9711Z" fill="#000055"/>
<path d="M28.3211 16.9711H26.6997V18.5925H28.3211V16.9711Z" fill="#000055"/>
<path d="M31.5643 16.9711H29.9429V18.5925H31.5643V16.9711Z" fill="#000055"/>
<path d="M34.807 16.9711H33.1855V18.5925H34.807V16.9711Z" fill="#000055"/>
<path d="M38.0496 16.9711H36.4282V18.5925H38.0496V16.9711Z" fill="#000055"/>
<path d="M41.2928 16.9711H39.6714V18.5925H41.2928V16.9711Z" fill="#000055"/>
<path d="M44.5355 16.9711H42.9141V18.5925H44.5355V16.9711Z" fill="#000055"/>
<path d="M47.7782 16.9711H46.1567V18.5925H47.7782V16.9711Z" fill="#000055"/>
<path d="M25.0785 18.5924H23.457V20.2138H25.0785V18.5924Z" fill="#000055"/>
<path d="M26.7 18.5924H25.0786V20.2138H26.7V18.5924Z" fill="#000055"/>
<path d="M29.9427 18.5924H28.3213V20.2138H29.9427V18.5924Z" fill="#000055"/>
<path d="M33.1854 18.5924H31.564V20.2138H33.1854V18.5924Z" fill="#000055"/>
<path d="M34.807 18.5924H33.1855V20.2138H34.807V18.5924Z" fill="#000055"/>
<path d="M44.5355 18.5924H42.9141V20.2138H44.5355V18.5924Z" fill="#000055"/>
<path d="M8.8641 20.2139H7.24268V21.8352H8.8641V20.2139Z" fill="#000055"/>
<path d="M13.7284 20.2139H12.1069V21.8352H13.7284V20.2139Z" fill="#000055"/>
<path d="M15.3499 20.2139H13.7285V21.8352H15.3499V20.2139Z" fill="#000055"/>
<path d="M16.9715 20.2139H15.3501V21.8352H16.9715V20.2139Z" fill="#000055"/>
<path d="M18.5926 20.2139H16.9712V21.8352H18.5926V20.2139Z" fill="#000055"/>
<path d="M20.2142 20.2139H18.5928V21.8352H20.2142V20.2139Z" fill="#000055"/>
<path d="M21.8358 20.2139H20.2144V21.8352H21.8358V20.2139Z" fill="#000055"/>
<path d="M23.4569 20.2139H21.8354V21.8352H23.4569V20.2139Z" fill="#000055"/>
<path d="M26.7 20.2139H25.0786V21.8352H26.7V20.2139Z" fill="#000055"/>
<path d="M28.3211 20.2139H26.6997V21.8352H28.3211V20.2139Z" fill="#000055"/>
<path d="M31.5643 20.2139H29.9429V21.8352H31.5643V20.2139Z" fill="#000055"/>
<path d="M36.4285 20.2139H34.8071V21.8352H36.4285V20.2139Z" fill="#000055"/>
<path d="M38.0496 20.2139H36.4282V21.8352H38.0496V20.2139Z" fill="#000055"/>
<path d="M39.6712 20.2139H38.0498V21.8352H39.6712V20.2139Z" fill="#000055"/>
<path d="M47.7782 20.2139H46.1567V21.8352H47.7782V20.2139Z" fill="#000055"/>
<path d="M49.3997 20.2139H47.7783V21.8352H49.3997V20.2139Z" fill="#000055"/>
<path d="M54.264 20.2139H52.6426V21.8352H54.264V20.2139Z" fill="#000055"/>
<path d="M57.5067 20.2139H55.8853V21.8352H57.5067V20.2139Z" fill="#000055"/>
<path d="M59.1283 20.2139H57.5068V21.8352H59.1283V20.2139Z" fill="#000055"/>
<path d="M60.7498 20.2139H59.1284V21.8352H60.7498V20.2139Z" fill="#000055"/>
<path d="M13.7284 21.8352H12.1069V23.4566H13.7284V21.8352Z" fill="#000055"/>
<path d="M15.3499 21.8352H13.7285V23.4566H15.3499V21.8352Z" fill="#000055"/>
<path d="M20.2142 21.8352H18.5928V23.4566H20.2142V21.8352Z" fill="#000055"/>
<path d="M28.3211 21.8352H26.6997V23.4566H28.3211V21.8352Z" fill="#000055"/>
<path d="M29.9427 21.8352H28.3213V23.4566H29.9427V21.8352Z" fill="#000055"/>
<path d="M31.5643 21.8352H29.9429V23.4566H31.5643V21.8352Z" fill="#000055"/>
<path d="M33.1854 21.8352H31.564V23.4566H33.1854V21.8352Z" fill="#000055"/>
<path d="M36.4285 21.8352H34.8071V23.4566H36.4285V21.8352Z" fill="#000055"/>
<path d="M38.0496 21.8352H36.4282V23.4566H38.0496V21.8352Z" fill="#000055"/>
<path d="M39.6712 21.8352H38.0498V23.4566H39.6712V21.8352Z" fill="#000055"/>
<path d="M46.1571 21.8352H44.5356V23.4566H46.1571V21.8352Z" fill="#000055"/>
<path d="M47.7782 21.8352H46.1567V23.4566H47.7782V21.8352Z" fill="#000055"/>
<path d="M54.264 21.8352H52.6426V23.4566H54.264V21.8352Z" fill="#000055"/>
<path d="M55.8856 21.8352H54.2642V23.4566H55.8856V21.8352Z" fill="#000055"/>
<path d="M57.5067 21.8352H55.8853V23.4566H57.5067V21.8352Z" fill="#000055"/>
<path d="M8.8641 23.4565H7.24268V25.0779H8.8641V23.4565Z" fill="#000055"/>
<path d="M18.5926 23.4565H16.9712V25.0779H18.5926V23.4565Z" fill="#000055"/>
<path d="M25.0785 23.4565H23.457V25.0779H25.0785V23.4565Z" fill="#000055"/>
<path d="M26.7 23.4565H25.0786V25.0779H26.7V23.4565Z" fill="#000055"/>
<path d="M29.9427 23.4565H28.3213V25.0779H29.9427V23.4565Z" fill="#000055"/>
<path d="M33.1854 23.4565H31.564V25.0779H33.1854V23.4565Z" fill="#000055"/>
<path d="M36.4285 23.4565H34.8071V25.0779H36.4285V23.4565Z" fill="#000055"/>
<path d="M42.9139 23.4565H41.2925V25.0779H42.9139V23.4565Z" fill="#000055"/>
<path d="M44.5355 23.4565H42.9141V25.0779H44.5355V23.4565Z" fill="#000055"/>
<path d="M46.1571 23.4565H44.5356V25.0779H46.1571V23.4565Z" fill="#000055"/>
<path d="M51.0213 23.4565H49.3999V25.0779H51.0213V23.4565Z" fill="#000055"/>
<path d="M54.264 23.4565H52.6426V25.0779H54.264V23.4565Z" fill="#000055"/>
<path d="M55.8856 23.4565H54.2642V25.0779H55.8856V23.4565Z" fill="#000055"/>
<path d="M57.5067 23.4565H55.8853V25.0779H57.5067V23.4565Z" fill="#000055"/>
<path d="M59.1283 23.4565H57.5068V25.0779H59.1283V23.4565Z" fill="#000055"/>
<path d="M60.7498 23.4565H59.1284V25.0779H60.7498V23.4565Z" fill="#000055"/>
<path d="M8.8641 25.078H7.24268V26.6994H8.8641V25.078Z" fill="#000055"/>
<path d="M10.4857 25.078H8.86426V26.6994H10.4857V25.078Z" fill="#000055"/>
<path d="M15.3499 25.078H13.7285V26.6994H15.3499V25.078Z" fill="#000055"/>
<path d="M20.2142 25.078H18.5928V26.6994H20.2142V25.078Z" fill="#000055"/>
<path d="M21.8358 25.078H20.2144V26.6994H21.8358V25.078Z" fill="#000055"/>
<path d="M23.4569 25.078H21.8354V26.6994H23.4569V25.078Z" fill="#000055"/>
<path d="M25.0785 25.078H23.457V26.6994H25.0785V25.078Z" fill="#000055"/>
<path d="M26.7 25.078H25.0786V26.6994H26.7V25.078Z" fill="#000055"/>
<path d="M28.3211 25.078H26.6997V26.6994H28.3211V25.078Z" fill="#000055"/>
<path d="M29.9427 25.078H28.3213V26.6994H29.9427V25.078Z" fill="#000055"/>
<path d="M34.807 25.078H33.1855V26.6994H34.807V25.078Z" fill="#000055"/>
<path d="M36.4285 25.078H34.8071V26.6994H36.4285V25.078Z" fill="#000055"/>
<path d="M38.0496 25.078H36.4282V26.6994H38.0496V25.078Z" fill="#000055"/>
<path d="M39.6712 25.078H38.0498V26.6994H39.6712V25.078Z" fill="#000055"/>
<path d="M44.5355 25.078H42.9141V26.6994H44.5355V25.078Z" fill="#000055"/>
<path d="M47.7782 25.078H46.1567V26.6994H47.7782V25.078Z" fill="#000055"/>
<path d="M51.0213 25.078H49.3999V26.6994H51.0213V25.078Z" fill="#000055"/>
<path d="M52.6424 25.078H51.021V26.6994H52.6424V25.078Z" fill="#000055"/>
<path d="M57.5067 25.078H55.8853V26.6994H57.5067V25.078Z" fill="#000055"/>
<path d="M60.7498 25.078H59.1284V26.6994H60.7498V25.078Z" fill="#000055"/>
<path d="M8.8641 26.6993H7.24268V28.3207H8.8641V26.6993Z" fill="#000055"/>
<path d="M12.1073 26.6993H10.4858V28.3207H12.1073V26.6993Z" fill="#000055"/>
<path d="M13.7284 26.6993H12.1069V28.3207H13.7284V26.6993Z" fill="#000055"/>
<path d="M15.3499 26.6993H13.7285V28.3207H15.3499V26.6993Z" fill="#000055"/>
<path d="M18.5926 26.6993H16.9712V28.3207H18.5926V26.6993Z" fill="#000055"/>
<path d="M21.8358 26.6993H20.2144V28.3207H21.8358V26.6993Z" fill="#000055"/>
<path d="M23.4569 26.6993H21.8354V28.3207H23.4569V26.6993Z" fill="#000055"/>
<path d="M29.9427 26.6993H28.3213V28.3207H29.9427V26.6993Z" fill="#000055"/>
<path d="M33.1854 26.6993H31.564V28.3207H33.1854V26.6993Z" fill="#000055"/>
<path d="M38.0496 26.6993H36.4282V28.3207H38.0496V26.6993Z" fill="#000055"/>
<path d="M39.6712 26.6993H38.0498V28.3207H39.6712V26.6993Z" fill="#000055"/>
<path d="M44.5355 26.6993H42.9141V28.3207H44.5355V26.6993Z" fill="#000055"/>
<path d="M46.1571 26.6993H44.5356V28.3207H46.1571V26.6993Z" fill="#000055"/>
<path d="M49.3997 26.6993H47.7783V28.3207H49.3997V26.6993Z" fill="#000055"/>
<path d="M51.0213 26.6993H49.3999V28.3207H51.0213V26.6993Z" fill="#000055"/>
<path d="M60.7498 26.6993H59.1284V28.3207H60.7498V26.6993Z" fill="#000055"/>
<path d="M21.8358 28.3207H20.2144V29.9421H21.8358V28.3207Z" fill="#000055"/>
<path d="M25.0785 28.3207H23.457V29.9421H25.0785V28.3207Z" fill="#000055"/>
<path d="M26.7 28.3207H25.0786V29.9421H26.7V28.3207Z" fill="#000055"/>
<path d="M29.9427 28.3207H28.3213V29.9421H29.9427V28.3207Z" fill="#000055"/>
<path d="M31.5643 28.3207H29.9429V29.9421H31.5643V28.3207Z" fill="#000055"/>
<path d="M36.4285 28.3207H34.8071V29.9421H36.4285V28.3207Z" fill="#000055"/>
<path d="M41.2928 28.3207H39.6714V29.9421H41.2928V28.3207Z" fill="#000055"/>
<path d="M44.5355 28.3207H42.9141V29.9421H44.5355V28.3207Z" fill="#000055"/>
<path d="M46.1571 28.3207H44.5356V29.9421H46.1571V28.3207Z" fill="#000055"/>
<path d="M47.7782 28.3207H46.1567V29.9421H47.7782V28.3207Z" fill="#000055"/>
<path d="M49.3997 28.3207H47.7783V29.9421H49.3997V28.3207Z" fill="#000055"/>
<path d="M52.6424 28.3207H51.021V29.9421H52.6424V28.3207Z" fill="#000055"/>
<path d="M57.5067 28.3207H55.8853V29.9421H57.5067V28.3207Z" fill="#000055"/>
<path d="M12.1073 29.9421H10.4858V31.5635H12.1073V29.9421Z" fill="#000055"/>
<path d="M13.7284 29.9421H12.1069V31.5635H13.7284V29.9421Z" fill="#000055"/>
<path d="M16.9715 29.9421H15.3501V31.5635H16.9715V29.9421Z" fill="#000055"/>
<path d="M18.5926 29.9421H16.9712V31.5635H18.5926V29.9421Z" fill="#000055"/>
<path d="M20.2142 29.9421H18.5928V31.5635H20.2142V29.9421Z" fill="#000055"/>
<path d="M25.0785 29.9421H23.457V31.5635H25.0785V29.9421Z" fill="#000055"/>
<path d="M29.9427 29.9421H28.3213V31.5635H29.9427V29.9421Z" fill="#000055"/>
<path d="M31.5643 29.9421H29.9429V31.5635H31.5643V29.9421Z" fill="#000055"/>
<path d="M33.1854 29.9421H31.564V31.5635H33.1854V29.9421Z" fill="#000055"/>
<path d="M36.4285 29.9421H34.8071V31.5635H36.4285V29.9421Z" fill="#000055"/>
<path d="M39.6712 29.9421H38.0498V31.5635H39.6712V29.9421Z" fill="#000055"/>
<path d="M41.2928 29.9421H39.6714V31.5635H41.2928V29.9421Z" fill="#000055"/>
<path d="M42.9139 29.9421H41.2925V31.5635H42.9139V29.9421Z" fill="#000055"/>
<path d="M44.5355 29.9421H42.9141V31.5635H44.5355V29.9421Z" fill="#000055"/>
<path d="M51.0213 29.9421H49.3999V31.5635H51.0213V29.9421Z" fill="#000055"/>
<path d="M52.6424 29.9421H51.021V31.5635H52.6424V29.9421Z" fill="#000055"/>
<path d="M54.264 29.9421H52.6426V31.5635H54.264V29.9421Z" fill="#000055"/>
<path d="M8.8641 31.5635H7.24268V33.1849H8.8641V31.5635Z" fill="#000055"/>
<path d="M10.4857 31.5635H8.86426V33.1849H10.4857V31.5635Z" fill="#000055"/>
<path d="M13.7284 31.5635H12.1069V33.1849H13.7284V31.5635Z" fill="#000055"/>
<path d="M20.2142 31.5635H18.5928V33.1849H20.2142V31.5635Z" fill="#000055"/>
<path d="M25.0785 31.5635H23.457V33.1849H25.0785V31.5635Z" fill="#000055"/>
<path d="M26.7 31.5635H25.0786V33.1849H26.7V31.5635Z" fill="#000055"/>
<path d="M28.3211 31.5635H26.6997V33.1849H28.3211V31.5635Z" fill="#000055"/>
<path d="M29.9427 31.5635H28.3213V33.1849H29.9427V31.5635Z" fill="#000055"/>
<path d="M31.5643 31.5635H29.9429V33.1849H31.5643V31.5635Z" fill="#000055"/>
<path d="M34.807 31.5635H33.1855V33.1849H34.807V31.5635Z" fill="#000055"/>
<path d="M44.5355 31.5635H42.9141V33.1849H44.5355V31.5635Z" fill="#000055"/>
<path d="M47.7782 31.5635H46.1567V33.1849H47.7782V31.5635Z" fill="#000055"/>
<path d="M49.3997 31.5635H47.7783V33.1849H49.3997V31.5635Z" fill="#000055"/>
<path d="M55.8856 31.5635H54.2642V33.1849H55.8856V31.5635Z" fill="#000055"/>
<path d="M57.5067 31.5635H55.8853V33.1849H57.5067V31.5635Z" fill="#000055"/>
<path d="M60.7498 31.5635H59.1284V33.1849H60.7498V31.5635Z" fill="#000055"/>
<path d="M8.8641 33.1849H7.24268V34.8063H8.8641V33.1849Z" fill="#000055"/>
<path d="M12.1073 33.1849H10.4858V34.8063H12.1073V33.1849Z" fill="#000055"/>
<path d="M15.3499 33.1849H13.7285V34.8063H15.3499V33.1849Z" fill="#000055"/>
<path d="M16.9715 33.1849H15.3501V34.8063H16.9715V33.1849Z" fill="#000055"/>
<path d="M18.5926 33.1849H16.9712V34.8063H18.5926V33.1849Z" fill="#000055"/>
<path d="M20.2142 33.1849H18.5928V34.8063H20.2142V33.1849Z" fill="#000055"/>
<path d="M21.8358 33.1849H20.2144V34.8063H21.8358V33.1849Z" fill="#000055"/>
<path d="M23.4569 33.1849H21.8354V34.8063H23.4569V33.1849Z" fill="#000055"/>
<path d="M26.7 33.1849H25.0786V34.8063H26.7V33.1849Z" fill="#000055"/>
<path d="M31.5643 33.1849H29.9429V34.8063H31.5643V33.1849Z" fill="#000055"/>
<path d="M33.1854 33.1849H31.564V34.8063H33.1854V33.1849Z" fill="#000055"/>
<path d="M34.807 33.1849H33.1855V34.8063H34.807V33.1849Z" fill="#000055"/>
<path d="M41.2928 33.1849H39.6714V34.8063H41.2928V33.1849Z" fill="#000055"/>
<path d="M44.5355 33.1849H42.9141V34.8063H44.5355V33.1849Z" fill="#000055"/>
<path d="M46.1571 33.1849H44.5356V34.8063H46.1571V33.1849Z" fill="#000055"/>
<path d="M49.3997 33.1849H47.7783V34.8063H49.3997V33.1849Z" fill="#000055"/>
<path d="M51.0213 33.1849H49.3999V34.8063H51.0213V33.1849Z" fill="#000055"/>
<path d="M52.6424 33.1849H51.021V34.8063H52.6424V33.1849Z" fill="#000055"/>
<path d="M54.264 33.1849H52.6426V34.8063H54.264V33.1849Z" fill="#000055"/>
<path d="M55.8856 33.1849H54.2642V34.8063H55.8856V33.1849Z" fill="#000055"/>
<path d="M8.8641 34.8063H7.24268V36.4277H8.8641V34.8063Z" fill="#000055"/>
<path d="M10.4857 34.8063H8.86426V36.4277H10.4857V34.8063Z" fill="#000055"/>
<path d="M12.1073 34.8063H10.4858V36.4277H12.1073V34.8063Z" fill="#000055"/>
<path d="M13.7284 34.8063H12.1069V36.4277H13.7284V34.8063Z" fill="#000055"/>
<path d="M20.2142 34.8063H18.5928V36.4277H20.2142V34.8063Z" fill="#000055"/>
<path d="M21.8358 34.8063H20.2144V36.4277H21.8358V34.8063Z" fill="#000055"/>
<path d="M23.4569 34.8063H21.8354V36.4277H23.4569V34.8063Z" fill="#000055"/>
<path d="M26.7 34.8063H25.0786V36.4277H26.7V34.8063Z" fill="#000055"/>
<path d="M29.9427 34.8063H28.3213V36.4277H29.9427V34.8063Z" fill="#000055"/>
<path d="M33.1854 34.8063H31.564V36.4277H33.1854V34.8063Z" fill="#000055"/>
<path d="M38.0496 34.8063H36.4282V36.4277H38.0496V34.8063Z" fill="#000055"/>
<path d="M39.6712 34.8063H38.0498V36.4277H39.6712V34.8063Z" fill="#000055"/>
<path d="M41.2928 34.8063H39.6714V36.4277H41.2928V34.8063Z" fill="#000055"/>
<path d="M51.0213 34.8063H49.3999V36.4277H51.0213V34.8063Z" fill="#000055"/>
<path d="M54.264 34.8063H52.6426V36.4277H54.264V34.8063Z" fill="#000055"/>
<path d="M57.5067 34.8063H55.8853V36.4277H57.5067V34.8063Z" fill="#000055"/>
<path d="M59.1283 34.8063H57.5068V36.4277H59.1283V34.8063Z" fill="#000055"/>
<path d="M60.7498 34.8063H59.1284V36.4277H60.7498V34.8063Z" fill="#000055"/>
<path d="M16.9715 36.4276H15.3501V38.049H16.9715V36.4276Z" fill="#000055"/>
<path d="M18.5926 36.4276H16.9712V38.049H18.5926V36.4276Z" fill="#000055"/>
<path d="M20.2142 36.4276H18.5928V38.049H20.2142V36.4276Z" fill="#000055"/>
<path d="M23.4569 36.4276H21.8354V38.049H23.4569V36.4276Z" fill="#000055"/>
<path d="M26.7 36.4276H25.0786V38.049H26.7V36.4276Z" fill="#000055"/>
<path d="M31.5643 36.4276H29.9429V38.049H31.5643V36.4276Z" fill="#000055"/>
<path d="M33.1854 36.4276H31.564V38.049H33.1854V36.4276Z" fill="#000055"/>
<path d="M36.4285 36.4276H34.8071V38.049H36.4285V36.4276Z" fill="#000055"/>
<path d="M39.6712 36.4276H38.0498V38.049H39.6712V36.4276Z" fill="#000055"/>
<path d="M41.2928 36.4276H39.6714V38.049H41.2928V36.4276Z" fill="#000055"/>
<path d="M42.9139 36.4276H41.2925V38.049H42.9139V36.4276Z" fill="#000055"/>
<path d="M44.5355 36.4276H42.9141V38.049H44.5355V36.4276Z" fill="#000055"/>
<path d="M46.1571 36.4276H44.5356V38.049H46.1571V36.4276Z" fill="#000055"/>
<path d="M47.7782 36.4276H46.1567V38.049H47.7782V36.4276Z" fill="#000055"/>
<path d="M52.6424 36.4276H51.021V38.049H52.6424V36.4276Z" fill="#000055"/>
<path d="M55.8856 36.4276H54.2642V38.049H55.8856V36.4276Z" fill="#000055"/>
<path d="M57.5067 36.4276H55.8853V38.049H57.5067V36.4276Z" fill="#000055"/>
<path d="M60.7498 36.4276H59.1284V38.049H60.7498V36.4276Z" fill="#000055"/>
<path d="M10.4857 38.0491H8.86426V39.6705H10.4857V38.0491Z" fill="#000055"/>
<path d="M16.9715 38.0491H15.3501V39.6705H16.9715V38.0491Z" fill="#000055"/>
<path d="M20.2142 38.0491H18.5928V39.6705H20.2142V38.0491Z" fill="#000055"/>
<path d="M28.3211 38.0491H26.6997V39.6705H28.3211V38.0491Z" fill="#000055"/>
<path d="M29.9427 38.0491H28.3213V39.6705H29.9427V38.0491Z" fill="#000055"/>
<path d="M44.5355 38.0491H42.9141V39.6705H44.5355V38.0491Z" fill="#000055"/>
<path d="M47.7782 38.0491H46.1567V39.6705H47.7782V38.0491Z" fill="#000055"/>
<path d="M54.264 38.0491H52.6426V39.6705H54.264V38.0491Z" fill="#000055"/>
<path d="M55.8856 38.0491H54.2642V39.6705H55.8856V38.0491Z" fill="#000055"/>
<path d="M57.5067 38.0491H55.8853V39.6705H57.5067V38.0491Z" fill="#000055"/>
<path d="M60.7498 38.0491H59.1284V39.6705H60.7498V38.0491Z" fill="#000055"/>
<path d="M8.8641 39.6704H7.24268V41.2918H8.8641V39.6704Z" fill="#000055"/>
<path d="M10.4857 39.6704H8.86426V41.2918H10.4857V39.6704Z" fill="#000055"/>
<path d="M12.1073 39.6704H10.4858V41.2918H12.1073V39.6704Z" fill="#000055"/>
<path d="M18.5926 39.6704H16.9712V41.2918H18.5926V39.6704Z" fill="#000055"/>
<path d="M20.2142 39.6704H18.5928V41.2918H20.2142V39.6704Z" fill="#000055"/>
<path d="M23.4569 39.6704H21.8354V41.2918H23.4569V39.6704Z" fill="#000055"/>
<path d="M31.5643 39.6704H29.9429V41.2918H31.5643V39.6704Z" fill="#000055"/>
<path d="M33.1854 39.6704H31.564V41.2918H33.1854V39.6704Z" fill="#000055"/>
<path d="M34.807 39.6704H33.1855V41.2918H34.807V39.6704Z" fill="#000055"/>
<path d="M36.4285 39.6704H34.8071V41.2918H36.4285V39.6704Z" fill="#000055"/>
<path d="M41.2928 39.6704H39.6714V41.2918H41.2928V39.6704Z" fill="#000055"/>
<path d="M44.5355 39.6704H42.9141V41.2918H44.5355V39.6704Z" fill="#000055"/>
<path d="M52.6424 39.6704H51.021V41.2918H52.6424V39.6704Z" fill="#000055"/>
<path d="M55.8856 39.6704H54.2642V41.2918H55.8856V39.6704Z" fill="#000055"/>
<path d="M59.1283 39.6704H57.5068V41.2918H59.1283V39.6704Z" fill="#000055"/>
<path d="M8.8641 41.2917H7.24268V42.9131H8.8641V41.2917Z" fill="#000055"/>
<path d="M10.4857 41.2917H8.86426V42.9131H10.4857V41.2917Z" fill="#000055"/>
<path d="M12.1073 41.2917H10.4858V42.9131H12.1073V41.2917Z" fill="#000055"/>
<path d="M16.9715 41.2917H15.3501V42.9131H16.9715V41.2917Z" fill="#000055"/>
<path d="M28.3211 41.2917H26.6997V42.9131H28.3211V41.2917Z" fill="#000055"/>
<path d="M29.9427 41.2917H28.3213V42.9131H29.9427V41.2917Z" fill="#000055"/>
<path d="M36.4285 41.2917H34.8071V42.9131H36.4285V41.2917Z" fill="#000055"/>
<path d="M38.0496 41.2917H36.4282V42.9131H38.0496V41.2917Z" fill="#000055"/>
<path d="M39.6712 41.2917H38.0498V42.9131H39.6712V41.2917Z" fill="#000055"/>
<path d="M41.2928 41.2917H39.6714V42.9131H41.2928V41.2917Z" fill="#000055"/>
<path d="M46.1571 41.2917H44.5356V42.9131H46.1571V41.2917Z" fill="#000055"/>
<path d="M47.7782 41.2917H46.1567V42.9131H47.7782V41.2917Z" fill="#000055"/>
<path d="M52.6424 41.2917H51.021V42.9131H52.6424V41.2917Z" fill="#000055"/>
<path d="M54.264 41.2917H52.6426V42.9131H54.264V41.2917Z" fill="#000055"/>
<path d="M55.8856 41.2917H54.2642V42.9131H55.8856V41.2917Z" fill="#000055"/>
<path d="M57.5067 41.2917H55.8853V42.9131H57.5067V41.2917Z" fill="#000055"/>
<path d="M8.8641 42.9132H7.24268V44.5346H8.8641V42.9132Z" fill="#000055"/>
<path d="M12.1073 42.9132H10.4858V44.5346H12.1073V42.9132Z" fill="#000055"/>
<path d="M18.5926 42.9132H16.9712V44.5346H18.5926V42.9132Z" fill="#000055"/>
<path d="M20.2142 42.9132H18.5928V44.5346H20.2142V42.9132Z" fill="#000055"/>
<path d="M25.0785 42.9132H23.457V44.5346H25.0785V42.9132Z" fill="#000055"/>
<path d="M28.3211 42.9132H26.6997V44.5346H28.3211V42.9132Z" fill="#000055"/>
<path d="M31.5643 42.9132H29.9429V44.5346H31.5643V42.9132Z" fill="#000055"/>
<path d="M36.4285 42.9132H34.8071V44.5346H36.4285V42.9132Z" fill="#000055"/>
<path d="M38.0496 42.9132H36.4282V44.5346H38.0496V42.9132Z" fill="#000055"/>
<path d="M42.9139 42.9132H41.2925V44.5346H42.9139V42.9132Z" fill="#000055"/>
<path d="M46.1571 42.9132H44.5356V44.5346H46.1571V42.9132Z" fill="#000055"/>
<path d="M47.7782 42.9132H46.1567V44.5346H47.7782V42.9132Z" fill="#000055"/>
<path d="M51.0213 42.9132H49.3999V44.5346H51.0213V42.9132Z" fill="#000055"/>
<path d="M57.5067 42.9132H55.8853V44.5346H57.5067V42.9132Z" fill="#000055"/>
<path d="M59.1283 42.9132H57.5068V44.5346H59.1283V42.9132Z" fill="#000055"/>
<path d="M60.7498 42.9132H59.1284V44.5346H60.7498V42.9132Z" fill="#000055"/>
<path d="M8.8641 44.5345H7.24268V46.1559H8.8641V44.5345Z" fill="#000055"/>
<path d="M13.7284 44.5345H12.1069V46.1559H13.7284V44.5345Z" fill="#000055"/>
<path d="M16.9715 44.5345H15.3501V46.1559H16.9715V44.5345Z" fill="#000055"/>
<path d="M20.2142 44.5345H18.5928V46.1559H20.2142V44.5345Z" fill="#000055"/>
<path d="M21.8358 44.5345H20.2144V46.1559H21.8358V44.5345Z" fill="#000055"/>
<path d="M23.4569 44.5345H21.8354V46.1559H23.4569V44.5345Z" fill="#000055"/>
<path d="M25.0785 44.5345H23.457V46.1559H25.0785V44.5345Z" fill="#000055"/>
<path d="M26.7 44.5345H25.0786V46.1559H26.7V44.5345Z" fill="#000055"/>
<path d="M31.5643 44.5345H29.9429V46.1559H31.5643V44.5345Z" fill="#000055"/>
<path d="M33.1854 44.5345H31.564V46.1559H33.1854V44.5345Z" fill="#000055"/>
<path d="M36.4285 44.5345H34.8071V46.1559H36.4285V44.5345Z" fill="#000055"/>
<path d="M38.0496 44.5345H36.4282V46.1559H38.0496V44.5345Z" fill="#000055"/>
<path d="M44.5355 44.5345H42.9141V46.1559H44.5355V44.5345Z" fill="#000055"/>
<path d="M46.1571 44.5345H44.5356V46.1559H46.1571V44.5345Z" fill="#000055"/>
<path d="M49.3997 44.5345H47.7783V46.1559H49.3997V44.5345Z" fill="#000055"/>
<path d="M52.6424 44.5345H51.021V46.1559H52.6424V44.5345Z" fill="#000055"/>
<path d="M57.5067 44.5345H55.8853V46.1559H57.5067V44.5345Z" fill="#000055"/>
<path d="M59.1283 44.5345H57.5068V46.1559H59.1283V44.5345Z" fill="#000055"/>
<path d="M8.8641 46.1559H7.24268V47.7773H8.8641V46.1559Z" fill="#000055"/>
<path d="M10.4857 46.1559H8.86426V47.7773H10.4857V46.1559Z" fill="#000055"/>
<path d="M12.1073 46.1559H10.4858V47.7773H12.1073V46.1559Z" fill="#000055"/>
<path d="M13.7284 46.1559H12.1069V47.7773H13.7284V46.1559Z" fill="#000055"/>
<path d="M15.3499 46.1559H13.7285V47.7773H15.3499V46.1559Z" fill="#000055"/>
<path d="M16.9715 46.1559H15.3501V47.7773H16.9715V46.1559Z" fill="#000055"/>
<path d="M18.5926 46.1559H16.9712V47.7773H18.5926V46.1559Z" fill="#000055"/>
<path d="M20.2142 46.1559H18.5928V47.7773H20.2142V46.1559Z" fill="#000055"/>
<path d="M25.0785 46.1559H23.457V47.7773H25.0785V46.1559Z" fill="#000055"/>
<path d="M28.3211 46.1559H26.6997V47.7773H28.3211V46.1559Z" fill="#000055"/>
<path d="M29.9427 46.1559H28.3213V47.7773H29.9427V46.1559Z" fill="#000055"/>
<path d="M31.5643 46.1559H29.9429V47.7773H31.5643V46.1559Z" fill="#000055"/>
<path d="M34.807 46.1559H33.1855V47.7773H34.807V46.1559Z" fill="#000055"/>
<path d="M41.2928 46.1559H39.6714V47.7773H41.2928V46.1559Z" fill="#000055"/>
<path d="M46.1571 46.1559H44.5356V47.7773H46.1571V46.1559Z" fill="#000055"/>
<path d="M47.7782 46.1559H46.1567V47.7773H47.7782V46.1559Z" fill="#000055"/>
<path d="M49.3997 46.1559H47.7783V47.7773H49.3997V46.1559Z" fill="#000055"/>
<path d="M51.0213 46.1559H49.3999V47.7773H51.0213V46.1559Z" fill="#000055"/>
<path d="M52.6424 46.1559H51.021V47.7773H52.6424V46.1559Z" fill="#000055"/>
<path d="M54.264 46.1559H52.6426V47.7773H54.264V46.1559Z" fill="#000055"/>
<path d="M59.1283 46.1559H57.5068V47.7773H59.1283V46.1559Z" fill="#000055"/>
<path d="M21.8358 47.7773H20.2144V49.3987H21.8358V47.7773Z" fill="#000055"/>
<path d="M23.4569 47.7773H21.8354V49.3987H23.4569V47.7773Z" fill="#000055"/>
<path d="M25.0785 47.7773H23.457V49.3987H25.0785V47.7773Z" fill="#000055"/>
<path d="M26.7 47.7773H25.0786V49.3987H26.7V47.7773Z" fill="#000055"/>
<path d="M28.3211 47.7773H26.6997V49.3987H28.3211V47.7773Z" fill="#000055"/>
<path d="M31.5643 47.7773H29.9429V49.3987H31.5643V47.7773Z" fill="#000055"/>
<path d="M33.1854 47.7773H31.564V49.3987H33.1854V47.7773Z" fill="#000055"/>
<path d="M34.807 47.7773H33.1855V49.3987H34.807V47.7773Z" fill="#000055"/>
<path d="M36.4285 47.7773H34.8071V49.3987H36.4285V47.7773Z" fill="#000055"/>
<path d="M41.2928 47.7773H39.6714V49.3987H41.2928V47.7773Z" fill="#000055"/>
<path d="M46.1571 47.7773H44.5356V49.3987H46.1571V47.7773Z" fill="#000055"/>
<path d="M47.7782 47.7773H46.1567V49.3987H47.7782V47.7773Z" fill="#000055"/>
<path d="M54.264 47.7773H52.6426V49.3987H54.264V47.7773Z" fill="#000055"/>
<path d="M57.5067 47.7773H55.8853V49.3987H57.5067V47.7773Z" fill="#000055"/>
<path d="M59.1283 47.7773H57.5068V49.3987H59.1283V47.7773Z" fill="#000055"/>
<path d="M21.8358 49.3987H20.2144V51.0201H21.8358V49.3987Z" fill="#000055"/>
<path d="M23.4569 49.3987H21.8354V51.0201H23.4569V49.3987Z" fill="#000055"/>
<path d="M26.7 49.3987H25.0786V51.0201H26.7V49.3987Z" fill="#000055"/>
<path d="M29.9427 49.3987H28.3213V51.0201H29.9427V49.3987Z" fill="#000055"/>
<path d="M31.5643 49.3987H29.9429V51.0201H31.5643V49.3987Z" fill="#000055"/>
<path d="M33.1854 49.3987H31.564V51.0201H33.1854V49.3987Z" fill="#000055"/>
<path d="M38.0496 49.3987H36.4282V51.0201H38.0496V49.3987Z" fill="#000055"/>
<path d="M39.6712 49.3987H38.0498V51.0201H39.6712V49.3987Z" fill="#000055"/>
<path d="M41.2928 49.3987H39.6714V51.0201H41.2928V49.3987Z" fill="#000055"/>
<path d="M42.9139 49.3987H41.2925V51.0201H42.9139V49.3987Z" fill="#000055"/>
<path d="M46.1571 49.3987H44.5356V51.0201H46.1571V49.3987Z" fill="#000055"/>
<path d="M47.7782 49.3987H46.1567V51.0201H47.7782V49.3987Z" fill="#000055"/>
<path d="M51.0213 49.3987H49.3999V51.0201H51.0213V49.3987Z" fill="#000055"/>
<path d="M54.264 49.3987H52.6426V51.0201H54.264V49.3987Z" fill="#000055"/>
<path d="M57.5067 49.3987H55.8853V51.0201H57.5067V49.3987Z" fill="#000055"/>
<path d="M21.8358 51.0201H20.2144V52.6415H21.8358V51.0201Z" fill="#000055"/>
<path d="M25.0785 51.0201H23.457V52.6415H25.0785V51.0201Z" fill="#000055"/>
<path d="M26.7 51.0201H25.0786V52.6415H26.7V51.0201Z" fill="#000055"/>
<path d="M29.9427 51.0201H28.3213V52.6415H29.9427V51.0201Z" fill="#000055"/>
<path d="M31.5643 51.0201H29.9429V52.6415H31.5643V51.0201Z" fill="#000055"/>
<path d="M33.1854 51.0201H31.564V52.6415H33.1854V51.0201Z" fill="#000055"/>
<path d="M38.0496 51.0201H36.4282V52.6415H38.0496V51.0201Z" fill="#000055"/>
<path d="M46.1571 51.0201H44.5356V52.6415H46.1571V51.0201Z" fill="#000055"/>
<path d="M47.7782 51.0201H46.1567V52.6415H47.7782V51.0201Z" fill="#000055"/>
<path d="M54.264 51.0201H52.6426V52.6415H54.264V51.0201Z" fill="#000055"/>
<path d="M55.8856 51.0201H54.2642V52.6415H55.8856V51.0201Z" fill="#000055"/>
<path d="M57.5067 51.0201H55.8853V52.6415H57.5067V51.0201Z" fill="#000055"/>
<path d="M21.8358 52.6415H20.2144V54.2629H21.8358V52.6415Z" fill="#000055"/>
<path d="M23.4569 52.6415H21.8354V54.2629H23.4569V52.6415Z" fill="#000055"/>
<path d="M26.7 52.6415H25.0786V54.2629H26.7V52.6415Z" fill="#000055"/>
<path d="M28.3211 52.6415H26.6997V54.2629H28.3211V52.6415Z" fill="#000055"/>
<path d="M29.9427 52.6415H28.3213V54.2629H29.9427V52.6415Z" fill="#000055"/>
<path d="M31.5643 52.6415H29.9429V54.2629H31.5643V52.6415Z" fill="#000055"/>
<path d="M46.1571 52.6415H44.5356V54.2629H46.1571V52.6415Z" fill="#000055"/>
<path d="M47.7782 52.6415H46.1567V54.2629H47.7782V52.6415Z" fill="#000055"/>
<path d="M49.3997 52.6415H47.7783V54.2629H49.3997V52.6415Z" fill="#000055"/>
<path d="M51.0213 52.6415H49.3999V54.2629H51.0213V52.6415Z" fill="#000055"/>
<path d="M52.6424 52.6415H51.021V54.2629H52.6424V52.6415Z" fill="#000055"/>
<path d="M54.264 52.6415H52.6426V54.2629H54.264V52.6415Z" fill="#000055"/>
<path d="M59.1283 52.6415H57.5068V54.2629H59.1283V52.6415Z" fill="#000055"/>
<path d="M60.7498 52.6415H59.1284V54.2629H60.7498V52.6415Z" fill="#000055"/>
<path d="M21.8358 54.2628H20.2144V55.8842H21.8358V54.2628Z" fill="#000055"/>
<path d="M23.4569 54.2628H21.8354V55.8842H23.4569V54.2628Z" fill="#000055"/>
<path d="M31.5643 54.2628H29.9429V55.8842H31.5643V54.2628Z" fill="#000055"/>
<path d="M34.807 54.2628H33.1855V55.8842H34.807V54.2628Z" fill="#000055"/>
<path d="M36.4285 54.2628H34.8071V55.8842H36.4285V54.2628Z" fill="#000055"/>
<path d="M39.6712 54.2628H38.0498V55.8842H39.6712V54.2628Z" fill="#000055"/>
<path d="M42.9139 54.2628H41.2925V55.8842H42.9139V54.2628Z" fill="#000055"/>
<path d="M46.1571 54.2628H44.5356V55.8842H46.1571V54.2628Z" fill="#000055"/>
<path d="M47.7782 54.2628H46.1567V55.8842H47.7782V54.2628Z" fill="#000055"/>
<path d="M49.3997 54.2628H47.7783V55.8842H49.3997V54.2628Z" fill="#000055"/>
<path d="M52.6424 54.2628H51.021V55.8842H52.6424V54.2628Z" fill="#000055"/>
<path d="M57.5067 54.2628H55.8853V55.8842H57.5067V54.2628Z" fill="#000055"/>
<path d="M59.1283 54.2628H57.5068V55.8842H59.1283V54.2628Z" fill="#000055"/>
<path d="M60.7498 54.2628H59.1284V55.8842H60.7498V54.2628Z" fill="#000055"/>
<path d="M25.0785 55.8843H23.457V57.5057H25.0785V55.8843Z" fill="#000055"/>
<path d="M28.3211 55.8843H26.6997V57.5057H28.3211V55.8843Z" fill="#000055"/>
<path d="M29.9427 55.8843H28.3213V57.5057H29.9427V55.8843Z" fill="#000055"/>
<path d="M31.5643 55.8843H29.9429V57.5057H31.5643V55.8843Z" fill="#000055"/>
<path d="M33.1854 55.8843H31.564V57.5057H33.1854V55.8843Z" fill="#000055"/>
<path d="M34.807 55.8843H33.1855V57.5057H34.807V55.8843Z" fill="#000055"/>
<path d="M38.0496 55.8843H36.4282V57.5057H38.0496V55.8843Z" fill="#000055"/>
<path d="M39.6712 55.8843H38.0498V57.5057H39.6712V55.8843Z" fill="#000055"/>
<path d="M41.2928 55.8843H39.6714V57.5057H41.2928V55.8843Z" fill="#000055"/>
<path d="M42.9139 55.8843H41.2925V57.5057H42.9139V55.8843Z" fill="#000055"/>
<path d="M46.1571 55.8843H44.5356V57.5057H46.1571V55.8843Z" fill="#000055"/>
<path d="M47.7782 55.8843H46.1567V57.5057H47.7782V55.8843Z" fill="#000055"/>
<path d="M52.6424 55.8843H51.021V57.5057H52.6424V55.8843Z" fill="#000055"/>
<path d="M54.264 55.8843H52.6426V57.5057H54.264V55.8843Z" fill="#000055"/>
<path d="M55.8856 55.8843H54.2642V57.5057H55.8856V55.8843Z" fill="#000055"/>
<path d="M57.5067 55.8843H55.8853V57.5057H57.5067V55.8843Z" fill="#000055"/>
<path d="M59.1283 55.8843H57.5068V57.5057H59.1283V55.8843Z" fill="#000055"/>
<path d="M60.7498 55.8843H59.1284V57.5057H60.7498V55.8843Z" fill="#000055"/>
<path d="M23.4569 57.5056H21.8354V59.127H23.4569V57.5056Z" fill="#000055"/>
<path d="M26.7 57.5056H25.0786V59.127H26.7V57.5056Z" fill="#000055"/>
<path d="M28.3211 57.5056H26.6997V59.127H28.3211V57.5056Z" fill="#000055"/>
<path d="M33.1854 57.5056H31.564V59.127H33.1854V57.5056Z" fill="#000055"/>
<path d="M38.0496 57.5056H36.4282V59.127H38.0496V57.5056Z" fill="#000055"/>
<path d="M49.3997 57.5056H47.7783V59.127H49.3997V57.5056Z" fill="#000055"/>
<path d="M52.6424 57.5056H51.021V59.127H52.6424V57.5056Z" fill="#000055"/>
<path d="M54.264 57.5056H52.6426V59.127H54.264V57.5056Z" fill="#000055"/>
<path d="M57.5067 57.5056H55.8853V59.127H57.5067V57.5056Z" fill="#000055"/>
<path d="M59.1283 57.5056H57.5068V59.127H59.1283V57.5056Z" fill="#000055"/>
<path d="M60.7498 57.5056H59.1284V59.127H60.7498V57.5056Z" fill="#000055"/>
<path d="M21.8358 59.127H20.2144V60.7483H21.8358V59.127Z" fill="#000055"/>
<path d="M28.3211 59.127H26.6997V60.7483H28.3211V59.127Z" fill="#000055"/>
<path d="M29.9427 59.127H28.3213V60.7483H29.9427V59.127Z" fill="#000055"/>
<path d="M31.5643 59.127H29.9429V60.7483H31.5643V59.127Z" fill="#000055"/>
<path d="M33.1854 59.127H31.564V60.7483H33.1854V59.127Z" fill="#000055"/>
<path d="M34.807 59.127H33.1855V60.7483H34.807V59.127Z" fill="#000055"/>
<path d="M36.4285 59.127H34.8071V60.7483H36.4285V59.127Z" fill="#000055"/>
<path d="M38.0496 59.127H36.4282V60.7483H38.0496V59.127Z" fill="#000055"/>
<path d="M39.6712 59.127H38.0498V60.7483H39.6712V59.127Z" fill="#000055"/>
<path d="M46.1571 59.127H44.5356V60.7483H46.1571V59.127Z" fill="#000055"/>
<path d="M47.7782 59.127H46.1567V60.7483H47.7782V59.127Z" fill="#000055"/>
<path d="M52.6424 59.127H51.021V60.7483H52.6424V59.127Z" fill="#000055"/>
<path d="M54.264 59.127H52.6426V60.7483H54.264V59.127Z" fill="#000055"/>
<path d="M16.89 7.2428H7.24268V18.5925H18.5926V7.2428H16.89ZM16.89 16.8899H8.94526V8.94534H16.89V16.8899Z" fill="#000055"/>
<path d="M59.0473 7.2428H49.3999V18.5925H60.7498V7.2428H59.0473ZM59.0473 16.8899H51.1025V8.94534H59.0473V16.8899Z" fill="#000055"/>
<path d="M16.89 49.3987H7.24268V60.7484H18.5926V49.3987H16.89ZM16.89 59.0458H8.94526V51.1012H16.89V59.0458Z" fill="#000055"/>
<path d="M15.3501 10.4855H10.4858V15.3496H15.3501V10.4855Z" fill="#000055"/>
<path d="M57.5068 10.4855H52.6426V15.3496H57.5068V10.4855Z" fill="#000055"/>
<path d="M15.3501 52.6415H10.4858V57.5056H15.3501V52.6415Z" fill="#000055"/>
</svg>
