<svg width="68" height="68" viewBox="0 0 68 68" fill="none" xmlns="http://www.w3.org/2000/svg">
<rect width="68" height="68" rx="5" fill="white"/>
<path d="M20.0977 6.92688H18.6343V8.39029H20.0977V6.92688Z" fill="#000055"/>
<path d="M24.4878 6.92688H23.0244V8.39029H24.4878V6.92688Z" fill="#000055"/>
<path d="M25.9512 6.92688H24.4878V8.39029H25.9512V6.92688Z" fill="#000055"/>
<path d="M27.4146 6.92688H25.9512V8.39029H27.4146V6.92688Z" fill="#000055"/>
<path d="M34.7315 6.92688H33.2681V8.39029H34.7315V6.92688Z" fill="#000055"/>
<path d="M37.6587 6.92688H36.1953V8.39029H37.6587V6.92688Z" fill="#000055"/>
<path d="M39.1221 6.92688H37.6587V8.39029H39.1221V6.92688Z" fill="#000055"/>
<path d="M40.5855 6.92688H39.1221V8.39029H40.5855V6.92688Z" fill="#000055"/>
<path d="M42.0489 6.92688H40.5854V8.39029H42.0489V6.92688Z" fill="#000055"/>
<path d="M43.5122 6.92688H42.0488V8.39029H43.5122V6.92688Z" fill="#000055"/>
<path d="M44.9756 6.92688H43.5122V8.39029H44.9756V6.92688Z" fill="#000055"/>
<path d="M46.439 6.92688H44.9756V8.39029H46.439V6.92688Z" fill="#000055"/>
<path d="M49.3658 6.92688H47.9023V8.39029H49.3658V6.92688Z" fill="#000055"/>
<path d="M20.0977 8.39026H18.6343V9.85367H20.0977V8.39026Z" fill="#000055"/>
<path d="M21.5611 8.39026H20.0977V9.85367H21.5611V8.39026Z" fill="#000055"/>
<path d="M23.0244 8.39026H21.561V9.85367H23.0244V8.39026Z" fill="#000055"/>
<path d="M24.4878 8.39026H23.0244V9.85367H24.4878V8.39026Z" fill="#000055"/>
<path d="M28.878 8.39026H27.4146V9.85367H28.878V8.39026Z" fill="#000055"/>
<path d="M31.8047 8.39026H30.3413V9.85367H31.8047V8.39026Z" fill="#000055"/>
<path d="M36.1953 8.39026H34.7319V9.85367H36.1953V8.39026Z" fill="#000055"/>
<path d="M37.6587 8.39026H36.1953V9.85367H37.6587V8.39026Z" fill="#000055"/>
<path d="M39.1221 8.39026H37.6587V9.85367H39.1221V8.39026Z" fill="#000055"/>
<path d="M42.0489 8.39026H40.5854V9.85367H42.0489V8.39026Z" fill="#000055"/>
<path d="M43.5122 8.39026H42.0488V9.85367H43.5122V8.39026Z" fill="#000055"/>
<path d="M44.9756 8.39026H43.5122V9.85367H44.9756V8.39026Z" fill="#000055"/>
<path d="M49.3658 8.39026H47.9023V9.85367H49.3658V8.39026Z" fill="#000055"/>
<path d="M21.5611 9.85364H20.0977V11.3171H21.5611V9.85364Z" fill="#000055"/>
<path d="M24.4878 9.85364H23.0244V11.3171H24.4878V9.85364Z" fill="#000055"/>
<path d="M27.4146 9.85364H25.9512V11.3171H27.4146V9.85364Z" fill="#000055"/>
<path d="M28.878 9.85364H27.4146V11.3171H28.878V9.85364Z" fill="#000055"/>
<path d="M30.3413 9.85364H28.8779V11.3171H30.3413V9.85364Z" fill="#000055"/>
<path d="M34.7315 9.85364H33.2681V11.3171H34.7315V9.85364Z" fill="#000055"/>
<path d="M37.6587 9.85364H36.1953V11.3171H37.6587V9.85364Z" fill="#000055"/>
<path d="M42.0489 9.85364H40.5854V11.3171H42.0489V9.85364Z" fill="#000055"/>
<path d="M43.5122 9.85364H42.0488V11.3171H43.5122V9.85364Z" fill="#000055"/>
<path d="M44.9756 9.85364H43.5122V11.3171H44.9756V9.85364Z" fill="#000055"/>
<path d="M46.439 9.85364H44.9756V11.3171H46.439V9.85364Z" fill="#000055"/>
<path d="M47.9024 9.85364H46.439V11.3171H47.9024V9.85364Z" fill="#000055"/>
<path d="M49.3658 9.85364H47.9023V11.3171H49.3658V9.85364Z" fill="#000055"/>
<path d="M20.0977 11.317H18.6343V12.7804H20.0977V11.317Z" fill="#000055"/>
<path d="M24.4878 11.317H23.0244V12.7804H24.4878V11.317Z" fill="#000055"/>
<path d="M25.9512 11.317H24.4878V12.7804H25.9512V11.317Z" fill="#000055"/>
<path d="M27.4146 11.317H25.9512V12.7804H27.4146V11.317Z" fill="#000055"/>
<path d="M30.3413 11.317H28.8779V12.7804H30.3413V11.317Z" fill="#000055"/>
<path d="M31.8047 11.317H30.3413V12.7804H31.8047V11.317Z" fill="#000055"/>
<path d="M33.2681 11.317H31.8047V12.7804H33.2681V11.317Z" fill="#000055"/>
<path d="M34.7315 11.317H33.2681V12.7804H34.7315V11.317Z" fill="#000055"/>
<path d="M36.1953 11.317H34.7319V12.7804H36.1953V11.317Z" fill="#000055"/>
<path d="M37.6587 11.317H36.1953V12.7804H37.6587V11.317Z" fill="#000055"/>
<path d="M40.5855 11.317H39.1221V12.7804H40.5855V11.317Z" fill="#000055"/>
<path d="M42.0489 11.317H40.5854V12.7804H42.0489V11.317Z" fill="#000055"/>
<path d="M44.9756 11.317H43.5122V12.7804H44.9756V11.317Z" fill="#000055"/>
<path d="M46.439 11.317H44.9756V12.7804H46.439V11.317Z" fill="#000055"/>
<path d="M47.9024 11.317H46.439V12.7804H47.9024V11.317Z" fill="#000055"/>
<path d="M21.5611 12.7805H20.0977V14.2439H21.5611V12.7805Z" fill="#000055"/>
<path d="M24.4878 12.7805H23.0244V14.2439H24.4878V12.7805Z" fill="#000055"/>
<path d="M27.4146 12.7805H25.9512V14.2439H27.4146V12.7805Z" fill="#000055"/>
<path d="M30.3413 12.7805H28.8779V14.2439H30.3413V12.7805Z" fill="#000055"/>
<path d="M31.8047 12.7805H30.3413V14.2439H31.8047V12.7805Z" fill="#000055"/>
<path d="M33.2681 12.7805H31.8047V14.2439H33.2681V12.7805Z" fill="#000055"/>
<path d="M36.1953 12.7805H34.7319V14.2439H36.1953V12.7805Z" fill="#000055"/>
<path d="M40.5855 12.7805H39.1221V14.2439H40.5855V12.7805Z" fill="#000055"/>
<path d="M43.5122 12.7805H42.0488V14.2439H43.5122V12.7805Z" fill="#000055"/>
<path d="M46.439 12.7805H44.9756V14.2439H46.439V12.7805Z" fill="#000055"/>
<path d="M47.9024 12.7805H46.439V14.2439H47.9024V12.7805Z" fill="#000055"/>
<path d="M49.3658 12.7805H47.9023V14.2439H49.3658V12.7805Z" fill="#000055"/>
<path d="M21.5611 14.2439H20.0977V15.7073H21.5611V14.2439Z" fill="#000055"/>
<path d="M24.4878 14.2439H23.0244V15.7073H24.4878V14.2439Z" fill="#000055"/>
<path d="M27.4146 14.2439H25.9512V15.7073H27.4146V14.2439Z" fill="#000055"/>
<path d="M28.878 14.2439H27.4146V15.7073H28.878V14.2439Z" fill="#000055"/>
<path d="M31.8047 14.2439H30.3413V15.7073H31.8047V14.2439Z" fill="#000055"/>
<path d="M36.1953 14.2439H34.7319V15.7073H36.1953V14.2439Z" fill="#000055"/>
<path d="M39.1221 14.2439H37.6587V15.7073H39.1221V14.2439Z" fill="#000055"/>
<path d="M40.5855 14.2439H39.1221V15.7073H40.5855V14.2439Z" fill="#000055"/>
<path d="M43.5122 14.2439H42.0488V15.7073H43.5122V14.2439Z" fill="#000055"/>
<path d="M44.9756 14.2439H43.5122V15.7073H44.9756V14.2439Z" fill="#000055"/>
<path d="M46.439 14.2439H44.9756V15.7073H46.439V14.2439Z" fill="#000055"/>
<path d="M20.0977 15.7073H18.6343V17.1707H20.0977V15.7073Z" fill="#000055"/>
<path d="M23.0244 15.7073H21.561V17.1707H23.0244V15.7073Z" fill="#000055"/>
<path d="M25.9512 15.7073H24.4878V17.1707H25.9512V15.7073Z" fill="#000055"/>
<path d="M28.878 15.7073H27.4146V17.1707H28.878V15.7073Z" fill="#000055"/>
<path d="M31.8047 15.7073H30.3413V17.1707H31.8047V15.7073Z" fill="#000055"/>
<path d="M34.7315 15.7073H33.2681V17.1707H34.7315V15.7073Z" fill="#000055"/>
<path d="M37.6587 15.7073H36.1953V17.1707H37.6587V15.7073Z" fill="#000055"/>
<path d="M40.5855 15.7073H39.1221V17.1707H40.5855V15.7073Z" fill="#000055"/>
<path d="M43.5122 15.7073H42.0488V17.1707H43.5122V15.7073Z" fill="#000055"/>
<path d="M46.439 15.7073H44.9756V17.1707H46.439V15.7073Z" fill="#000055"/>
<path d="M49.3658 15.7073H47.9023V17.1707H49.3658V15.7073Z" fill="#000055"/>
<path d="M20.0977 17.1708H18.6343V18.6342H20.0977V17.1708Z" fill="#000055"/>
<path d="M21.5611 17.1708H20.0977V18.6342H21.5611V17.1708Z" fill="#000055"/>
<path d="M23.0244 17.1708H21.561V18.6342H23.0244V17.1708Z" fill="#000055"/>
<path d="M28.878 17.1708H27.4146V18.6342H28.878V17.1708Z" fill="#000055"/>
<path d="M30.3413 17.1708H28.8779V18.6342H30.3413V17.1708Z" fill="#000055"/>
<path d="M31.8047 17.1708H30.3413V18.6342H31.8047V17.1708Z" fill="#000055"/>
<path d="M33.2681 17.1708H31.8047V18.6342H33.2681V17.1708Z" fill="#000055"/>
<path d="M34.7315 17.1708H33.2681V18.6342H34.7315V17.1708Z" fill="#000055"/>
<path d="M37.6587 17.1708H36.1953V18.6342H37.6587V17.1708Z" fill="#000055"/>
<path d="M40.5855 17.1708H39.1221V18.6342H40.5855V17.1708Z" fill="#000055"/>
<path d="M43.5122 17.1708H42.0488V18.6342H43.5122V17.1708Z" fill="#000055"/>
<path d="M46.439 17.1708H44.9756V18.6342H46.439V17.1708Z" fill="#000055"/>
<path d="M47.9024 17.1708H46.439V18.6342H47.9024V17.1708Z" fill="#000055"/>
<path d="M49.3658 17.1708H47.9023V18.6342H49.3658V17.1708Z" fill="#000055"/>
<path d="M8.39017 18.6342H6.92676V20.0976H8.39017V18.6342Z" fill="#000055"/>
<path d="M11.3169 18.6342H9.85352V20.0976H11.3169V18.6342Z" fill="#000055"/>
<path d="M12.7803 18.6342H11.3169V20.0976H12.7803V18.6342Z" fill="#000055"/>
<path d="M15.7076 18.6342H14.2441V20.0976H15.7076V18.6342Z" fill="#000055"/>
<path d="M17.1709 18.6342H15.7075V20.0976H17.1709V18.6342Z" fill="#000055"/>
<path d="M18.6343 18.6342H17.1709V20.0976H18.6343V18.6342Z" fill="#000055"/>
<path d="M21.5611 18.6342H20.0977V20.0976H21.5611V18.6342Z" fill="#000055"/>
<path d="M24.4878 18.6342H23.0244V20.0976H24.4878V18.6342Z" fill="#000055"/>
<path d="M27.4146 18.6342H25.9512V20.0976H27.4146V18.6342Z" fill="#000055"/>
<path d="M28.878 18.6342H27.4146V20.0976H28.878V18.6342Z" fill="#000055"/>
<path d="M31.8047 18.6342H30.3413V20.0976H31.8047V18.6342Z" fill="#000055"/>
<path d="M36.1953 18.6342H34.7319V20.0976H36.1953V18.6342Z" fill="#000055"/>
<path d="M37.6587 18.6342H36.1953V20.0976H37.6587V18.6342Z" fill="#000055"/>
<path d="M42.0489 18.6342H40.5854V20.0976H42.0489V18.6342Z" fill="#000055"/>
<path d="M43.5122 18.6342H42.0488V20.0976H43.5122V18.6342Z" fill="#000055"/>
<path d="M47.9024 18.6342H46.439V20.0976H47.9024V18.6342Z" fill="#000055"/>
<path d="M52.2925 18.6342H50.8291V20.0976H52.2925V18.6342Z" fill="#000055"/>
<path d="M56.6831 18.6342H55.2197V20.0976H56.6831V18.6342Z" fill="#000055"/>
<path d="M59.6099 18.6342H58.1465V20.0976H59.6099V18.6342Z" fill="#000055"/>
<path d="M61.0733 18.6342H59.6099V20.0976H61.0733V18.6342Z" fill="#000055"/>
<path d="M12.7803 20.0975H11.3169V21.5609H12.7803V20.0975Z" fill="#000055"/>
<path d="M14.2437 20.0975H12.7803V21.5609H14.2437V20.0975Z" fill="#000055"/>
<path d="M15.7076 20.0975H14.2441V21.5609H15.7076V20.0975Z" fill="#000055"/>
<path d="M18.6343 20.0975H17.1709V21.5609H18.6343V20.0975Z" fill="#000055"/>
<path d="M21.5611 20.0975H20.0977V21.5609H21.5611V20.0975Z" fill="#000055"/>
<path d="M28.878 20.0975H27.4146V21.5609H28.878V20.0975Z" fill="#000055"/>
<path d="M30.3413 20.0975H28.8779V21.5609H30.3413V20.0975Z" fill="#000055"/>
<path d="M31.8047 20.0975H30.3413V21.5609H31.8047V20.0975Z" fill="#000055"/>
<path d="M33.2681 20.0975H31.8047V21.5609H33.2681V20.0975Z" fill="#000055"/>
<path d="M39.1221 20.0975H37.6587V21.5609H39.1221V20.0975Z" fill="#000055"/>
<path d="M40.5855 20.0975H39.1221V21.5609H40.5855V20.0975Z" fill="#000055"/>
<path d="M49.3658 20.0975H47.9023V21.5609H49.3658V20.0975Z" fill="#000055"/>
<path d="M53.7559 20.0975H52.2925V21.5609H53.7559V20.0975Z" fill="#000055"/>
<path d="M59.6099 20.0975H58.1465V21.5609H59.6099V20.0975Z" fill="#000055"/>
<path d="M8.39017 21.561H6.92676V23.0244H8.39017V21.561Z" fill="#000055"/>
<path d="M12.7803 21.561H11.3169V23.0244H12.7803V21.561Z" fill="#000055"/>
<path d="M17.1709 21.561H15.7075V23.0244H17.1709V21.561Z" fill="#000055"/>
<path d="M18.6343 21.561H17.1709V23.0244H18.6343V21.561Z" fill="#000055"/>
<path d="M20.0977 21.561H18.6343V23.0244H20.0977V21.561Z" fill="#000055"/>
<path d="M23.0244 21.561H21.561V23.0244H23.0244V21.561Z" fill="#000055"/>
<path d="M24.4878 21.561H23.0244V23.0244H24.4878V21.561Z" fill="#000055"/>
<path d="M25.9512 21.561H24.4878V23.0244H25.9512V21.561Z" fill="#000055"/>
<path d="M27.4146 21.561H25.9512V23.0244H27.4146V21.561Z" fill="#000055"/>
<path d="M28.878 21.561H27.4146V23.0244H28.878V21.561Z" fill="#000055"/>
<path d="M30.3413 21.561H28.8779V23.0244H30.3413V21.561Z" fill="#000055"/>
<path d="M34.7315 21.561H33.2681V23.0244H34.7315V21.561Z" fill="#000055"/>
<path d="M40.5855 21.561H39.1221V23.0244H40.5855V21.561Z" fill="#000055"/>
<path d="M42.0489 21.561H40.5854V23.0244H42.0489V21.561Z" fill="#000055"/>
<path d="M44.9756 21.561H43.5122V23.0244H44.9756V21.561Z" fill="#000055"/>
<path d="M49.3658 21.561H47.9023V23.0244H49.3658V21.561Z" fill="#000055"/>
<path d="M50.8291 21.561H49.3657V23.0244H50.8291V21.561Z" fill="#000055"/>
<path d="M8.39017 23.0244H6.92676V24.4878H8.39017V23.0244Z" fill="#000055"/>
<path d="M11.3169 23.0244H9.85352V24.4878H11.3169V23.0244Z" fill="#000055"/>
<path d="M14.2437 23.0244H12.7803V24.4878H14.2437V23.0244Z" fill="#000055"/>
<path d="M15.7076 23.0244H14.2441V24.4878H15.7076V23.0244Z" fill="#000055"/>
<path d="M18.6343 23.0244H17.1709V24.4878H18.6343V23.0244Z" fill="#000055"/>
<path d="M23.0244 23.0244H21.561V24.4878H23.0244V23.0244Z" fill="#000055"/>
<path d="M25.9512 23.0244H24.4878V24.4878H25.9512V23.0244Z" fill="#000055"/>
<path d="M30.3413 23.0244H28.8779V24.4878H30.3413V23.0244Z" fill="#000055"/>
<path d="M34.7315 23.0244H33.2681V24.4878H34.7315V23.0244Z" fill="#000055"/>
<path d="M36.1953 23.0244H34.7319V24.4878H36.1953V23.0244Z" fill="#000055"/>
<path d="M40.5855 23.0244H39.1221V24.4878H40.5855V23.0244Z" fill="#000055"/>
<path d="M43.5122 23.0244H42.0488V24.4878H43.5122V23.0244Z" fill="#000055"/>
<path d="M44.9756 23.0244H43.5122V24.4878H44.9756V23.0244Z" fill="#000055"/>
<path d="M46.439 23.0244H44.9756V24.4878H46.439V23.0244Z" fill="#000055"/>
<path d="M53.7559 23.0244H52.2925V24.4878H53.7559V23.0244Z" fill="#000055"/>
<path d="M58.1465 23.0244H56.6831V24.4878H58.1465V23.0244Z" fill="#000055"/>
<path d="M8.39017 24.4878H6.92676V25.9512H8.39017V24.4878Z" fill="#000055"/>
<path d="M9.85355 24.4878H8.39014V25.9512H9.85355V24.4878Z" fill="#000055"/>
<path d="M11.3169 24.4878H9.85352V25.9512H11.3169V24.4878Z" fill="#000055"/>
<path d="M12.7803 24.4878H11.3169V25.9512H12.7803V24.4878Z" fill="#000055"/>
<path d="M14.2437 24.4878H12.7803V25.9512H14.2437V24.4878Z" fill="#000055"/>
<path d="M17.1709 24.4878H15.7075V25.9512H17.1709V24.4878Z" fill="#000055"/>
<path d="M18.6343 24.4878H17.1709V25.9512H18.6343V24.4878Z" fill="#000055"/>
<path d="M20.0977 24.4878H18.6343V25.9512H20.0977V24.4878Z" fill="#000055"/>
<path d="M31.8047 24.4878H30.3413V25.9512H31.8047V24.4878Z" fill="#000055"/>
<path d="M33.2681 24.4878H31.8047V25.9512H33.2681V24.4878Z" fill="#000055"/>
<path d="M37.6587 24.4878H36.1953V25.9512H37.6587V24.4878Z" fill="#000055"/>
<path d="M40.5855 24.4878H39.1221V25.9512H40.5855V24.4878Z" fill="#000055"/>
<path d="M43.5122 24.4878H42.0488V25.9512H43.5122V24.4878Z" fill="#000055"/>
<path d="M44.9756 24.4878H43.5122V25.9512H44.9756V24.4878Z" fill="#000055"/>
<path d="M46.439 24.4878H44.9756V25.9512H46.439V24.4878Z" fill="#000055"/>
<path d="M47.9024 24.4878H46.439V25.9512H47.9024V24.4878Z" fill="#000055"/>
<path d="M50.8291 24.4878H49.3657V25.9512H50.8291V24.4878Z" fill="#000055"/>
<path d="M52.2925 24.4878H50.8291V25.9512H52.2925V24.4878Z" fill="#000055"/>
<path d="M53.7559 24.4878H52.2925V25.9512H53.7559V24.4878Z" fill="#000055"/>
<path d="M55.2193 24.4878H53.7559V25.9512H55.2193V24.4878Z" fill="#000055"/>
<path d="M58.1465 24.4878H56.6831V25.9512H58.1465V24.4878Z" fill="#000055"/>
<path d="M59.6099 24.4878H58.1465V25.9512H59.6099V24.4878Z" fill="#000055"/>
<path d="M61.0733 24.4878H59.6099V25.9512H61.0733V24.4878Z" fill="#000055"/>
<path d="M14.2437 25.9512H12.7803V27.4146H14.2437V25.9512Z" fill="#000055"/>
<path d="M23.0244 25.9512H21.561V27.4146H23.0244V25.9512Z" fill="#000055"/>
<path d="M25.9512 25.9512H24.4878V27.4146H25.9512V25.9512Z" fill="#000055"/>
<path d="M27.4146 25.9512H25.9512V27.4146H27.4146V25.9512Z" fill="#000055"/>
<path d="M28.878 25.9512H27.4146V27.4146H28.878V25.9512Z" fill="#000055"/>
<path d="M30.3413 25.9512H28.8779V27.4146H30.3413V25.9512Z" fill="#000055"/>
<path d="M31.8047 25.9512H30.3413V27.4146H31.8047V25.9512Z" fill="#000055"/>
<path d="M36.1953 25.9512H34.7319V27.4146H36.1953V25.9512Z" fill="#000055"/>
<path d="M39.1221 25.9512H37.6587V27.4146H39.1221V25.9512Z" fill="#000055"/>
<path d="M44.9756 25.9512H43.5122V27.4146H44.9756V25.9512Z" fill="#000055"/>
<path d="M46.439 25.9512H44.9756V27.4146H46.439V25.9512Z" fill="#000055"/>
<path d="M47.9024 25.9512H46.439V27.4146H47.9024V25.9512Z" fill="#000055"/>
<path d="M49.3658 25.9512H47.9023V27.4146H49.3658V25.9512Z" fill="#000055"/>
<path d="M50.8291 25.9512H49.3657V27.4146H50.8291V25.9512Z" fill="#000055"/>
<path d="M52.2925 25.9512H50.8291V27.4146H52.2925V25.9512Z" fill="#000055"/>
<path d="M53.7559 25.9512H52.2925V27.4146H53.7559V25.9512Z" fill="#000055"/>
<path d="M55.2193 25.9512H53.7559V27.4146H55.2193V25.9512Z" fill="#000055"/>
<path d="M56.6831 25.9512H55.2197V27.4146H56.6831V25.9512Z" fill="#000055"/>
<path d="M59.6099 25.9512H58.1465V27.4146H59.6099V25.9512Z" fill="#000055"/>
<path d="M61.0733 25.9512H59.6099V27.4146H61.0733V25.9512Z" fill="#000055"/>
<path d="M9.85355 27.4147H8.39014V28.8781H9.85355V27.4147Z" fill="#000055"/>
<path d="M11.3169 27.4147H9.85352V28.8781H11.3169V27.4147Z" fill="#000055"/>
<path d="M12.7803 27.4147H11.3169V28.8781H12.7803V27.4147Z" fill="#000055"/>
<path d="M14.2437 27.4147H12.7803V28.8781H14.2437V27.4147Z" fill="#000055"/>
<path d="M17.1709 27.4147H15.7075V28.8781H17.1709V27.4147Z" fill="#000055"/>
<path d="M23.0244 27.4147H21.561V28.8781H23.0244V27.4147Z" fill="#000055"/>
<path d="M24.4878 27.4147H23.0244V28.8781H24.4878V27.4147Z" fill="#000055"/>
<path d="M27.4146 27.4147H25.9512V28.8781H27.4146V27.4147Z" fill="#000055"/>
<path d="M31.8047 27.4147H30.3413V28.8781H31.8047V27.4147Z" fill="#000055"/>
<path d="M33.2681 27.4147H31.8047V28.8781H33.2681V27.4147Z" fill="#000055"/>
<path d="M34.7315 27.4147H33.2681V28.8781H34.7315V27.4147Z" fill="#000055"/>
<path d="M36.1953 27.4147H34.7319V28.8781H36.1953V27.4147Z" fill="#000055"/>
<path d="M39.1221 27.4147H37.6587V28.8781H39.1221V27.4147Z" fill="#000055"/>
<path d="M43.5122 27.4147H42.0488V28.8781H43.5122V27.4147Z" fill="#000055"/>
<path d="M46.439 27.4147H44.9756V28.8781H46.439V27.4147Z" fill="#000055"/>
<path d="M50.8291 27.4147H49.3657V28.8781H50.8291V27.4147Z" fill="#000055"/>
<path d="M55.2193 27.4147H53.7559V28.8781H55.2193V27.4147Z" fill="#000055"/>
<path d="M58.1465 27.4147H56.6831V28.8781H58.1465V27.4147Z" fill="#000055"/>
<path d="M59.6099 27.4147H58.1465V28.8781H59.6099V27.4147Z" fill="#000055"/>
<path d="M8.39017 28.8781H6.92676V30.3415H8.39017V28.8781Z" fill="#000055"/>
<path d="M9.85355 28.8781H8.39014V30.3415H9.85355V28.8781Z" fill="#000055"/>
<path d="M14.2437 28.8781H12.7803V30.3415H14.2437V28.8781Z" fill="#000055"/>
<path d="M18.6343 28.8781H17.1709V30.3415H18.6343V28.8781Z" fill="#000055"/>
<path d="M21.5611 28.8781H20.0977V30.3415H21.5611V28.8781Z" fill="#000055"/>
<path d="M23.0244 28.8781H21.561V30.3415H23.0244V28.8781Z" fill="#000055"/>
<path d="M24.4878 28.8781H23.0244V30.3415H24.4878V28.8781Z" fill="#000055"/>
<path d="M25.9512 28.8781H24.4878V30.3415H25.9512V28.8781Z" fill="#000055"/>
<path d="M28.878 28.8781H27.4146V30.3415H28.878V28.8781Z" fill="#000055"/>
<path d="M30.3413 28.8781H28.8779V30.3415H30.3413V28.8781Z" fill="#000055"/>
<path d="M31.8047 28.8781H30.3413V30.3415H31.8047V28.8781Z" fill="#000055"/>
<path d="M33.2681 28.8781H31.8047V30.3415H33.2681V28.8781Z" fill="#000055"/>
<path d="M34.7315 28.8781H33.2681V30.3415H34.7315V28.8781Z" fill="#000055"/>
<path d="M39.1221 28.8781H37.6587V30.3415H39.1221V28.8781Z" fill="#000055"/>
<path d="M40.5855 28.8781H39.1221V30.3415H40.5855V28.8781Z" fill="#000055"/>
<path d="M49.3658 28.8781H47.9023V30.3415H49.3658V28.8781Z" fill="#000055"/>
<path d="M50.8291 28.8781H49.3657V30.3415H50.8291V28.8781Z" fill="#000055"/>
<path d="M52.2925 28.8781H50.8291V30.3415H52.2925V28.8781Z" fill="#000055"/>
<path d="M53.7559 28.8781H52.2925V30.3415H53.7559V28.8781Z" fill="#000055"/>
<path d="M55.2193 28.8781H53.7559V30.3415H55.2193V28.8781Z" fill="#000055"/>
<path d="M59.6099 28.8781H58.1465V30.3415H59.6099V28.8781Z" fill="#000055"/>
<path d="M61.0733 28.8781H59.6099V30.3415H61.0733V28.8781Z" fill="#000055"/>
<path d="M11.3169 30.3414H9.85352V31.8048H11.3169V30.3414Z" fill="#000055"/>
<path d="M12.7803 30.3414H11.3169V31.8048H12.7803V30.3414Z" fill="#000055"/>
<path d="M17.1709 30.3414H15.7075V31.8048H17.1709V30.3414Z" fill="#000055"/>
<path d="M18.6343 30.3414H17.1709V31.8048H18.6343V30.3414Z" fill="#000055"/>
<path d="M20.0977 30.3414H18.6343V31.8048H20.0977V30.3414Z" fill="#000055"/>
<path d="M23.0244 30.3414H21.561V31.8048H23.0244V30.3414Z" fill="#000055"/>
<path d="M24.4878 30.3414H23.0244V31.8048H24.4878V30.3414Z" fill="#000055"/>
<path d="M25.9512 30.3414H24.4878V31.8048H25.9512V30.3414Z" fill="#000055"/>
<path d="M28.878 30.3414H27.4146V31.8048H28.878V30.3414Z" fill="#000055"/>
<path d="M30.3413 30.3414H28.8779V31.8048H30.3413V30.3414Z" fill="#000055"/>
<path d="M31.8047 30.3414H30.3413V31.8048H31.8047V30.3414Z" fill="#000055"/>
<path d="M33.2681 30.3414H31.8047V31.8048H33.2681V30.3414Z" fill="#000055"/>
<path d="M34.7315 30.3414H33.2681V31.8048H34.7315V30.3414Z" fill="#000055"/>
<path d="M37.6587 30.3414H36.1953V31.8048H37.6587V30.3414Z" fill="#000055"/>
<path d="M39.1221 30.3414H37.6587V31.8048H39.1221V30.3414Z" fill="#000055"/>
<path d="M40.5855 30.3414H39.1221V31.8048H40.5855V30.3414Z" fill="#000055"/>
<path d="M43.5122 30.3414H42.0488V31.8048H43.5122V30.3414Z" fill="#000055"/>
<path d="M44.9756 30.3414H43.5122V31.8048H44.9756V30.3414Z" fill="#000055"/>
<path d="M56.6831 30.3414H55.2197V31.8048H56.6831V30.3414Z" fill="#000055"/>
<path d="M58.1465 30.3414H56.6831V31.8048H58.1465V30.3414Z" fill="#000055"/>
<path d="M59.6099 30.3414H58.1465V31.8048H59.6099V30.3414Z" fill="#000055"/>
<path d="M61.0733 30.3414H59.6099V31.8048H61.0733V30.3414Z" fill="#000055"/>
<path d="M8.39017 31.8049H6.92676V33.2683H8.39017V31.8049Z" fill="#000055"/>
<path d="M9.85355 31.8049H8.39014V33.2683H9.85355V31.8049Z" fill="#000055"/>
<path d="M18.6343 31.8049H17.1709V33.2683H18.6343V31.8049Z" fill="#000055"/>
<path d="M21.5611 31.8049H20.0977V33.2683H21.5611V31.8049Z" fill="#000055"/>
<path d="M28.878 31.8049H27.4146V33.2683H28.878V31.8049Z" fill="#000055"/>
<path d="M31.8047 31.8049H30.3413V33.2683H31.8047V31.8049Z" fill="#000055"/>
<path d="M36.1953 31.8049H34.7319V33.2683H36.1953V31.8049Z" fill="#000055"/>
<path d="M37.6587 31.8049H36.1953V33.2683H37.6587V31.8049Z" fill="#000055"/>
<path d="M39.1221 31.8049H37.6587V33.2683H39.1221V31.8049Z" fill="#000055"/>
<path d="M40.5855 31.8049H39.1221V33.2683H40.5855V31.8049Z" fill="#000055"/>
<path d="M42.0489 31.8049H40.5854V33.2683H42.0489V31.8049Z" fill="#000055"/>
<path d="M43.5122 31.8049H42.0488V33.2683H43.5122V31.8049Z" fill="#000055"/>
<path d="M47.9024 31.8049H46.439V33.2683H47.9024V31.8049Z" fill="#000055"/>
<path d="M50.8291 31.8049H49.3657V33.2683H50.8291V31.8049Z" fill="#000055"/>
<path d="M52.2925 31.8049H50.8291V33.2683H52.2925V31.8049Z" fill="#000055"/>
<path d="M56.6831 31.8049H55.2197V33.2683H56.6831V31.8049Z" fill="#000055"/>
<path d="M59.6099 31.8049H58.1465V33.2683H59.6099V31.8049Z" fill="#000055"/>
<path d="M61.0733 31.8049H59.6099V33.2683H61.0733V31.8049Z" fill="#000055"/>
<path d="M8.39017 33.2683H6.92676V34.7317H8.39017V33.2683Z" fill="#000055"/>
<path d="M9.85355 33.2683H8.39014V34.7317H9.85355V33.2683Z" fill="#000055"/>
<path d="M12.7803 33.2683H11.3169V34.7317H12.7803V33.2683Z" fill="#000055"/>
<path d="M14.2437 33.2683H12.7803V34.7317H14.2437V33.2683Z" fill="#000055"/>
<path d="M15.7076 33.2683H14.2441V34.7317H15.7076V33.2683Z" fill="#000055"/>
<path d="M17.1709 33.2683H15.7075V34.7317H17.1709V33.2683Z" fill="#000055"/>
<path d="M21.5611 33.2683H20.0977V34.7317H21.5611V33.2683Z" fill="#000055"/>
<path d="M24.4878 33.2683H23.0244V34.7317H24.4878V33.2683Z" fill="#000055"/>
<path d="M25.9512 33.2683H24.4878V34.7317H25.9512V33.2683Z" fill="#000055"/>
<path d="M30.3413 33.2683H28.8779V34.7317H30.3413V33.2683Z" fill="#000055"/>
<path d="M31.8047 33.2683H30.3413V34.7317H31.8047V33.2683Z" fill="#000055"/>
<path d="M36.1953 33.2683H34.7319V34.7317H36.1953V33.2683Z" fill="#000055"/>
<path d="M40.5855 33.2683H39.1221V34.7317H40.5855V33.2683Z" fill="#000055"/>
<path d="M46.439 33.2683H44.9756V34.7317H46.439V33.2683Z" fill="#000055"/>
<path d="M47.9024 33.2683H46.439V34.7317H47.9024V33.2683Z" fill="#000055"/>
<path d="M50.8291 33.2683H49.3657V34.7317H50.8291V33.2683Z" fill="#000055"/>
<path d="M55.2193 33.2683H53.7559V34.7317H55.2193V33.2683Z" fill="#000055"/>
<path d="M59.6099 33.2683H58.1465V34.7317H59.6099V33.2683Z" fill="#000055"/>
<path d="M61.0733 33.2683H59.6099V34.7317H61.0733V33.2683Z" fill="#000055"/>
<path d="M23.0244 34.7317H21.561V36.1951H23.0244V34.7317Z" fill="#000055"/>
<path d="M24.4878 34.7317H23.0244V36.1951H24.4878V34.7317Z" fill="#000055"/>
<path d="M25.9512 34.7317H24.4878V36.1951H25.9512V34.7317Z" fill="#000055"/>
<path d="M33.2681 34.7317H31.8047V36.1951H33.2681V34.7317Z" fill="#000055"/>
<path d="M36.1953 34.7317H34.7319V36.1951H36.1953V34.7317Z" fill="#000055"/>
<path d="M40.5855 34.7317H39.1221V36.1951H40.5855V34.7317Z" fill="#000055"/>
<path d="M42.0489 34.7317H40.5854V36.1951H42.0489V34.7317Z" fill="#000055"/>
<path d="M43.5122 34.7317H42.0488V36.1951H43.5122V34.7317Z" fill="#000055"/>
<path d="M46.439 34.7317H44.9756V36.1951H46.439V34.7317Z" fill="#000055"/>
<path d="M47.9024 34.7317H46.439V36.1951H47.9024V34.7317Z" fill="#000055"/>
<path d="M49.3658 34.7317H47.9023V36.1951H49.3658V34.7317Z" fill="#000055"/>
<path d="M50.8291 34.7317H49.3657V36.1951H50.8291V34.7317Z" fill="#000055"/>
<path d="M53.7559 34.7317H52.2925V36.1951H53.7559V34.7317Z" fill="#000055"/>
<path d="M56.6831 34.7317H55.2197V36.1951H56.6831V34.7317Z" fill="#000055"/>
<path d="M59.6099 34.7317H58.1465V36.1951H59.6099V34.7317Z" fill="#000055"/>
<path d="M8.39017 36.1951H6.92676V37.6585H8.39017V36.1951Z" fill="#000055"/>
<path d="M11.3169 36.1951H9.85352V37.6585H11.3169V36.1951Z" fill="#000055"/>
<path d="M17.1709 36.1951H15.7075V37.6585H17.1709V36.1951Z" fill="#000055"/>
<path d="M18.6343 36.1951H17.1709V37.6585H18.6343V36.1951Z" fill="#000055"/>
<path d="M23.0244 36.1951H21.561V37.6585H23.0244V36.1951Z" fill="#000055"/>
<path d="M25.9512 36.1951H24.4878V37.6585H25.9512V36.1951Z" fill="#000055"/>
<path d="M31.8047 36.1951H30.3413V37.6585H31.8047V36.1951Z" fill="#000055"/>
<path d="M33.2681 36.1951H31.8047V37.6585H33.2681V36.1951Z" fill="#000055"/>
<path d="M34.7315 36.1951H33.2681V37.6585H34.7315V36.1951Z" fill="#000055"/>
<path d="M37.6587 36.1951H36.1953V37.6585H37.6587V36.1951Z" fill="#000055"/>
<path d="M39.1221 36.1951H37.6587V37.6585H39.1221V36.1951Z" fill="#000055"/>
<path d="M46.439 36.1951H44.9756V37.6585H46.439V36.1951Z" fill="#000055"/>
<path d="M49.3658 36.1951H47.9023V37.6585H49.3658V36.1951Z" fill="#000055"/>
<path d="M50.8291 36.1951H49.3657V37.6585H50.8291V36.1951Z" fill="#000055"/>
<path d="M53.7559 36.1951H52.2925V37.6585H53.7559V36.1951Z" fill="#000055"/>
<path d="M55.2193 36.1951H53.7559V37.6585H55.2193V36.1951Z" fill="#000055"/>
<path d="M61.0733 36.1951H59.6099V37.6585H61.0733V36.1951Z" fill="#000055"/>
<path d="M9.85355 37.6586H8.39014V39.122H9.85355V37.6586Z" fill="#000055"/>
<path d="M11.3169 37.6586H9.85352V39.122H11.3169V37.6586Z" fill="#000055"/>
<path d="M12.7803 37.6586H11.3169V39.122H12.7803V37.6586Z" fill="#000055"/>
<path d="M15.7076 37.6586H14.2441V39.122H15.7076V37.6586Z" fill="#000055"/>
<path d="M20.0977 37.6586H18.6343V39.122H20.0977V37.6586Z" fill="#000055"/>
<path d="M21.5611 37.6586H20.0977V39.122H21.5611V37.6586Z" fill="#000055"/>
<path d="M23.0244 37.6586H21.561V39.122H23.0244V37.6586Z" fill="#000055"/>
<path d="M24.4878 37.6586H23.0244V39.122H24.4878V37.6586Z" fill="#000055"/>
<path d="M25.9512 37.6586H24.4878V39.122H25.9512V37.6586Z" fill="#000055"/>
<path d="M31.8047 37.6586H30.3413V39.122H31.8047V37.6586Z" fill="#000055"/>
<path d="M34.7315 37.6586H33.2681V39.122H34.7315V37.6586Z" fill="#000055"/>
<path d="M36.1953 37.6586H34.7319V39.122H36.1953V37.6586Z" fill="#000055"/>
<path d="M37.6587 37.6586H36.1953V39.122H37.6587V37.6586Z" fill="#000055"/>
<path d="M40.5855 37.6586H39.1221V39.122H40.5855V37.6586Z" fill="#000055"/>
<path d="M42.0489 37.6586H40.5854V39.122H42.0489V37.6586Z" fill="#000055"/>
<path d="M49.3658 37.6586H47.9023V39.122H49.3658V37.6586Z" fill="#000055"/>
<path d="M56.6831 37.6586H55.2197V39.122H56.6831V37.6586Z" fill="#000055"/>
<path d="M8.39017 39.1219H6.92676V40.5854H8.39017V39.1219Z" fill="#000055"/>
<path d="M9.85355 39.1219H8.39014V40.5854H9.85355V39.1219Z" fill="#000055"/>
<path d="M17.1709 39.1219H15.7075V40.5854H17.1709V39.1219Z" fill="#000055"/>
<path d="M18.6343 39.1219H17.1709V40.5854H18.6343V39.1219Z" fill="#000055"/>
<path d="M21.5611 39.1219H20.0977V40.5854H21.5611V39.1219Z" fill="#000055"/>
<path d="M24.4878 39.1219H23.0244V40.5854H24.4878V39.1219Z" fill="#000055"/>
<path d="M25.9512 39.1219H24.4878V40.5854H25.9512V39.1219Z" fill="#000055"/>
<path d="M28.878 39.1219H27.4146V40.5854H28.878V39.1219Z" fill="#000055"/>
<path d="M31.8047 39.1219H30.3413V40.5854H31.8047V39.1219Z" fill="#000055"/>
<path d="M33.2681 39.1219H31.8047V40.5854H33.2681V39.1219Z" fill="#000055"/>
<path d="M42.0489 39.1219H40.5854V40.5854H42.0489V39.1219Z" fill="#000055"/>
<path d="M43.5122 39.1219H42.0488V40.5854H43.5122V39.1219Z" fill="#000055"/>
<path d="M44.9756 39.1219H43.5122V40.5854H44.9756V39.1219Z" fill="#000055"/>
<path d="M53.7559 39.1219H52.2925V40.5854H53.7559V39.1219Z" fill="#000055"/>
<path d="M9.85355 40.5853H8.39014V42.0487H9.85355V40.5853Z" fill="#000055"/>
<path d="M14.2437 40.5853H12.7803V42.0487H14.2437V40.5853Z" fill="#000055"/>
<path d="M15.7076 40.5853H14.2441V42.0487H15.7076V40.5853Z" fill="#000055"/>
<path d="M20.0977 40.5853H18.6343V42.0487H20.0977V40.5853Z" fill="#000055"/>
<path d="M21.5611 40.5853H20.0977V42.0487H21.5611V40.5853Z" fill="#000055"/>
<path d="M31.8047 40.5853H30.3413V42.0487H31.8047V40.5853Z" fill="#000055"/>
<path d="M34.7315 40.5853H33.2681V42.0487H34.7315V40.5853Z" fill="#000055"/>
<path d="M36.1953 40.5853H34.7319V42.0487H36.1953V40.5853Z" fill="#000055"/>
<path d="M40.5855 40.5853H39.1221V42.0487H40.5855V40.5853Z" fill="#000055"/>
<path d="M42.0489 40.5853H40.5854V42.0487H42.0489V40.5853Z" fill="#000055"/>
<path d="M43.5122 40.5853H42.0488V42.0487H43.5122V40.5853Z" fill="#000055"/>
<path d="M44.9756 40.5853H43.5122V42.0487H44.9756V40.5853Z" fill="#000055"/>
<path d="M47.9024 40.5853H46.439V42.0487H47.9024V40.5853Z" fill="#000055"/>
<path d="M55.2193 40.5853H53.7559V42.0487H55.2193V40.5853Z" fill="#000055"/>
<path d="M56.6831 40.5853H55.2197V42.0487H56.6831V40.5853Z" fill="#000055"/>
<path d="M58.1465 40.5853H56.6831V42.0487H58.1465V40.5853Z" fill="#000055"/>
<path d="M59.6099 40.5853H58.1465V42.0487H59.6099V40.5853Z" fill="#000055"/>
<path d="M61.0733 40.5853H59.6099V42.0487H61.0733V40.5853Z" fill="#000055"/>
<path d="M15.7076 42.0488H14.2441V43.5122H15.7076V42.0488Z" fill="#000055"/>
<path d="M17.1709 42.0488H15.7075V43.5122H17.1709V42.0488Z" fill="#000055"/>
<path d="M18.6343 42.0488H17.1709V43.5122H18.6343V42.0488Z" fill="#000055"/>
<path d="M23.0244 42.0488H21.561V43.5122H23.0244V42.0488Z" fill="#000055"/>
<path d="M24.4878 42.0488H23.0244V43.5122H24.4878V42.0488Z" fill="#000055"/>
<path d="M25.9512 42.0488H24.4878V43.5122H25.9512V42.0488Z" fill="#000055"/>
<path d="M27.4146 42.0488H25.9512V43.5122H27.4146V42.0488Z" fill="#000055"/>
<path d="M28.878 42.0488H27.4146V43.5122H28.878V42.0488Z" fill="#000055"/>
<path d="M34.7315 42.0488H33.2681V43.5122H34.7315V42.0488Z" fill="#000055"/>
<path d="M37.6587 42.0488H36.1953V43.5122H37.6587V42.0488Z" fill="#000055"/>
<path d="M40.5855 42.0488H39.1221V43.5122H40.5855V42.0488Z" fill="#000055"/>
<path d="M42.0489 42.0488H40.5854V43.5122H42.0489V42.0488Z" fill="#000055"/>
<path d="M43.5122 42.0488H42.0488V43.5122H43.5122V42.0488Z" fill="#000055"/>
<path d="M44.9756 42.0488H43.5122V43.5122H44.9756V42.0488Z" fill="#000055"/>
<path d="M46.439 42.0488H44.9756V43.5122H46.439V42.0488Z" fill="#000055"/>
<path d="M49.3658 42.0488H47.9023V43.5122H49.3658V42.0488Z" fill="#000055"/>
<path d="M50.8291 42.0488H49.3657V43.5122H50.8291V42.0488Z" fill="#000055"/>
<path d="M52.2925 42.0488H50.8291V43.5122H52.2925V42.0488Z" fill="#000055"/>
<path d="M55.2193 42.0488H53.7559V43.5122H55.2193V42.0488Z" fill="#000055"/>
<path d="M58.1465 42.0488H56.6831V43.5122H58.1465V42.0488Z" fill="#000055"/>
<path d="M59.6099 42.0488H58.1465V43.5122H59.6099V42.0488Z" fill="#000055"/>
<path d="M9.85355 43.5122H8.39014V44.9756H9.85355V43.5122Z" fill="#000055"/>
<path d="M20.0977 43.5122H18.6343V44.9756H20.0977V43.5122Z" fill="#000055"/>
<path d="M21.5611 43.5122H20.0977V44.9756H21.5611V43.5122Z" fill="#000055"/>
<path d="M24.4878 43.5122H23.0244V44.9756H24.4878V43.5122Z" fill="#000055"/>
<path d="M25.9512 43.5122H24.4878V44.9756H25.9512V43.5122Z" fill="#000055"/>
<path d="M28.878 43.5122H27.4146V44.9756H28.878V43.5122Z" fill="#000055"/>
<path d="M31.8047 43.5122H30.3413V44.9756H31.8047V43.5122Z" fill="#000055"/>
<path d="M33.2681 43.5122H31.8047V44.9756H33.2681V43.5122Z" fill="#000055"/>
<path d="M34.7315 43.5122H33.2681V44.9756H34.7315V43.5122Z" fill="#000055"/>
<path d="M37.6587 43.5122H36.1953V44.9756H37.6587V43.5122Z" fill="#000055"/>
<path d="M40.5855 43.5122H39.1221V44.9756H40.5855V43.5122Z" fill="#000055"/>
<path d="M43.5122 43.5122H42.0488V44.9756H43.5122V43.5122Z" fill="#000055"/>
<path d="M46.439 43.5122H44.9756V44.9756H46.439V43.5122Z" fill="#000055"/>
<path d="M47.9024 43.5122H46.439V44.9756H47.9024V43.5122Z" fill="#000055"/>
<path d="M49.3658 43.5122H47.9023V44.9756H49.3658V43.5122Z" fill="#000055"/>
<path d="M50.8291 43.5122H49.3657V44.9756H50.8291V43.5122Z" fill="#000055"/>
<path d="M52.2925 43.5122H50.8291V44.9756H52.2925V43.5122Z" fill="#000055"/>
<path d="M55.2193 43.5122H53.7559V44.9756H55.2193V43.5122Z" fill="#000055"/>
<path d="M59.6099 43.5122H58.1465V44.9756H59.6099V43.5122Z" fill="#000055"/>
<path d="M61.0733 43.5122H59.6099V44.9756H61.0733V43.5122Z" fill="#000055"/>
<path d="M9.85355 44.9756H8.39014V46.439H9.85355V44.9756Z" fill="#000055"/>
<path d="M14.2437 44.9756H12.7803V46.439H14.2437V44.9756Z" fill="#000055"/>
<path d="M17.1709 44.9756H15.7075V46.439H17.1709V44.9756Z" fill="#000055"/>
<path d="M20.0977 44.9756H18.6343V46.439H20.0977V44.9756Z" fill="#000055"/>
<path d="M24.4878 44.9756H23.0244V46.439H24.4878V44.9756Z" fill="#000055"/>
<path d="M28.878 44.9756H27.4146V46.439H28.878V44.9756Z" fill="#000055"/>
<path d="M30.3413 44.9756H28.8779V46.439H30.3413V44.9756Z" fill="#000055"/>
<path d="M31.8047 44.9756H30.3413V46.439H31.8047V44.9756Z" fill="#000055"/>
<path d="M34.7315 44.9756H33.2681V46.439H34.7315V44.9756Z" fill="#000055"/>
<path d="M36.1953 44.9756H34.7319V46.439H36.1953V44.9756Z" fill="#000055"/>
<path d="M37.6587 44.9756H36.1953V46.439H37.6587V44.9756Z" fill="#000055"/>
<path d="M39.1221 44.9756H37.6587V46.439H39.1221V44.9756Z" fill="#000055"/>
<path d="M40.5855 44.9756H39.1221V46.439H40.5855V44.9756Z" fill="#000055"/>
<path d="M44.9756 44.9756H43.5122V46.439H44.9756V44.9756Z" fill="#000055"/>
<path d="M46.439 44.9756H44.9756V46.439H46.439V44.9756Z" fill="#000055"/>
<path d="M49.3658 44.9756H47.9023V46.439H49.3658V44.9756Z" fill="#000055"/>
<path d="M56.6831 44.9756H55.2197V46.439H56.6831V44.9756Z" fill="#000055"/>
<path d="M59.6099 44.9756H58.1465V46.439H59.6099V44.9756Z" fill="#000055"/>
<path d="M8.39017 46.439H6.92676V47.9024H8.39017V46.439Z" fill="#000055"/>
<path d="M12.7803 46.439H11.3169V47.9024H12.7803V46.439Z" fill="#000055"/>
<path d="M20.0977 46.439H18.6343V47.9024H20.0977V46.439Z" fill="#000055"/>
<path d="M21.5611 46.439H20.0977V47.9024H21.5611V46.439Z" fill="#000055"/>
<path d="M23.0244 46.439H21.561V47.9024H23.0244V46.439Z" fill="#000055"/>
<path d="M24.4878 46.439H23.0244V47.9024H24.4878V46.439Z" fill="#000055"/>
<path d="M25.9512 46.439H24.4878V47.9024H25.9512V46.439Z" fill="#000055"/>
<path d="M27.4146 46.439H25.9512V47.9024H27.4146V46.439Z" fill="#000055"/>
<path d="M31.8047 46.439H30.3413V47.9024H31.8047V46.439Z" fill="#000055"/>
<path d="M39.1221 46.439H37.6587V47.9024H39.1221V46.439Z" fill="#000055"/>
<path d="M42.0489 46.439H40.5854V47.9024H42.0489V46.439Z" fill="#000055"/>
<path d="M43.5122 46.439H42.0488V47.9024H43.5122V46.439Z" fill="#000055"/>
<path d="M46.439 46.439H44.9756V47.9024H46.439V46.439Z" fill="#000055"/>
<path d="M49.3658 46.439H47.9023V47.9024H49.3658V46.439Z" fill="#000055"/>
<path d="M50.8291 46.439H49.3657V47.9024H50.8291V46.439Z" fill="#000055"/>
<path d="M52.2925 46.439H50.8291V47.9024H52.2925V46.439Z" fill="#000055"/>
<path d="M53.7559 46.439H52.2925V47.9024H53.7559V46.439Z" fill="#000055"/>
<path d="M55.2193 46.439H53.7559V47.9024H55.2193V46.439Z" fill="#000055"/>
<path d="M59.6099 46.439H58.1465V47.9024H59.6099V46.439Z" fill="#000055"/>
<path d="M14.2437 47.9025H12.7803V49.3659H14.2437V47.9025Z" fill="#000055"/>
<path d="M15.7076 47.9025H14.2441V49.3659H15.7076V47.9025Z" fill="#000055"/>
<path d="M17.1709 47.9025H15.7075V49.3659H17.1709V47.9025Z" fill="#000055"/>
<path d="M20.0977 47.9025H18.6343V49.3659H20.0977V47.9025Z" fill="#000055"/>
<path d="M21.5611 47.9025H20.0977V49.3659H21.5611V47.9025Z" fill="#000055"/>
<path d="M25.9512 47.9025H24.4878V49.3659H25.9512V47.9025Z" fill="#000055"/>
<path d="M30.3413 47.9025H28.8779V49.3659H30.3413V47.9025Z" fill="#000055"/>
<path d="M34.7315 47.9025H33.2681V49.3659H34.7315V47.9025Z" fill="#000055"/>
<path d="M37.6587 47.9025H36.1953V49.3659H37.6587V47.9025Z" fill="#000055"/>
<path d="M39.1221 47.9025H37.6587V49.3659H39.1221V47.9025Z" fill="#000055"/>
<path d="M40.5855 47.9025H39.1221V49.3659H40.5855V47.9025Z" fill="#000055"/>
<path d="M42.0489 47.9025H40.5854V49.3659H42.0489V47.9025Z" fill="#000055"/>
<path d="M44.9756 47.9025H43.5122V49.3659H44.9756V47.9025Z" fill="#000055"/>
<path d="M46.439 47.9025H44.9756V49.3659H46.439V47.9025Z" fill="#000055"/>
<path d="M47.9024 47.9025H46.439V49.3659H47.9024V47.9025Z" fill="#000055"/>
<path d="M49.3658 47.9025H47.9023V49.3659H49.3658V47.9025Z" fill="#000055"/>
<path d="M50.8291 47.9025H49.3657V49.3659H50.8291V47.9025Z" fill="#000055"/>
<path d="M52.2925 47.9025H50.8291V49.3659H52.2925V47.9025Z" fill="#000055"/>
<path d="M53.7559 47.9025H52.2925V49.3659H53.7559V47.9025Z" fill="#000055"/>
<path d="M55.2193 47.9025H53.7559V49.3659H55.2193V47.9025Z" fill="#000055"/>
<path d="M58.1465 47.9025H56.6831V49.3659H58.1465V47.9025Z" fill="#000055"/>
<path d="M20.0977 49.3658H18.6343V50.8293H20.0977V49.3658Z" fill="#000055"/>
<path d="M21.5611 49.3658H20.0977V50.8293H21.5611V49.3658Z" fill="#000055"/>
<path d="M23.0244 49.3658H21.561V50.8293H23.0244V49.3658Z" fill="#000055"/>
<path d="M24.4878 49.3658H23.0244V50.8293H24.4878V49.3658Z" fill="#000055"/>
<path d="M25.9512 49.3658H24.4878V50.8293H25.9512V49.3658Z" fill="#000055"/>
<path d="M28.878 49.3658H27.4146V50.8293H28.878V49.3658Z" fill="#000055"/>
<path d="M30.3413 49.3658H28.8779V50.8293H30.3413V49.3658Z" fill="#000055"/>
<path d="M33.2681 49.3658H31.8047V50.8293H33.2681V49.3658Z" fill="#000055"/>
<path d="M34.7315 49.3658H33.2681V50.8293H34.7315V49.3658Z" fill="#000055"/>
<path d="M37.6587 49.3658H36.1953V50.8293H37.6587V49.3658Z" fill="#000055"/>
<path d="M40.5855 49.3658H39.1221V50.8293H40.5855V49.3658Z" fill="#000055"/>
<path d="M42.0489 49.3658H40.5854V50.8293H42.0489V49.3658Z" fill="#000055"/>
<path d="M43.5122 49.3658H42.0488V50.8293H43.5122V49.3658Z" fill="#000055"/>
<path d="M44.9756 49.3658H43.5122V50.8293H44.9756V49.3658Z" fill="#000055"/>
<path d="M49.3658 49.3658H47.9023V50.8293H49.3658V49.3658Z" fill="#000055"/>
<path d="M55.2193 49.3658H53.7559V50.8293H55.2193V49.3658Z" fill="#000055"/>
<path d="M58.1465 49.3658H56.6831V50.8293H58.1465V49.3658Z" fill="#000055"/>
<path d="M59.6099 49.3658H58.1465V50.8293H59.6099V49.3658Z" fill="#000055"/>
<path d="M61.0733 49.3658H59.6099V50.8293H61.0733V49.3658Z" fill="#000055"/>
<path d="M20.0977 50.8292H18.6343V52.2926H20.0977V50.8292Z" fill="#000055"/>
<path d="M21.5611 50.8292H20.0977V52.2926H21.5611V50.8292Z" fill="#000055"/>
<path d="M24.4878 50.8292H23.0244V52.2926H24.4878V50.8292Z" fill="#000055"/>
<path d="M25.9512 50.8292H24.4878V52.2926H25.9512V50.8292Z" fill="#000055"/>
<path d="M30.3413 50.8292H28.8779V52.2926H30.3413V50.8292Z" fill="#000055"/>
<path d="M31.8047 50.8292H30.3413V52.2926H31.8047V50.8292Z" fill="#000055"/>
<path d="M33.2681 50.8292H31.8047V52.2926H33.2681V50.8292Z" fill="#000055"/>
<path d="M37.6587 50.8292H36.1953V52.2926H37.6587V50.8292Z" fill="#000055"/>
<path d="M49.3658 50.8292H47.9023V52.2926H49.3658V50.8292Z" fill="#000055"/>
<path d="M52.2925 50.8292H50.8291V52.2926H52.2925V50.8292Z" fill="#000055"/>
<path d="M55.2193 50.8292H53.7559V52.2926H55.2193V50.8292Z" fill="#000055"/>
<path d="M58.1465 50.8292H56.6831V52.2926H58.1465V50.8292Z" fill="#000055"/>
<path d="M61.0733 50.8292H59.6099V52.2926H61.0733V50.8292Z" fill="#000055"/>
<path d="M20.0977 52.2927H18.6343V53.7561H20.0977V52.2927Z" fill="#000055"/>
<path d="M23.0244 52.2927H21.561V53.7561H23.0244V52.2927Z" fill="#000055"/>
<path d="M25.9512 52.2927H24.4878V53.7561H25.9512V52.2927Z" fill="#000055"/>
<path d="M27.4146 52.2927H25.9512V53.7561H27.4146V52.2927Z" fill="#000055"/>
<path d="M36.1953 52.2927H34.7319V53.7561H36.1953V52.2927Z" fill="#000055"/>
<path d="M49.3658 52.2927H47.9023V53.7561H49.3658V52.2927Z" fill="#000055"/>
<path d="M55.2193 52.2927H53.7559V53.7561H55.2193V52.2927Z" fill="#000055"/>
<path d="M61.0733 52.2927H59.6099V53.7561H61.0733V52.2927Z" fill="#000055"/>
<path d="M21.5611 53.7561H20.0977V55.2195H21.5611V53.7561Z" fill="#000055"/>
<path d="M23.0244 53.7561H21.561V55.2195H23.0244V53.7561Z" fill="#000055"/>
<path d="M27.4146 53.7561H25.9512V55.2195H27.4146V53.7561Z" fill="#000055"/>
<path d="M28.878 53.7561H27.4146V55.2195H28.878V53.7561Z" fill="#000055"/>
<path d="M34.7315 53.7561H33.2681V55.2195H34.7315V53.7561Z" fill="#000055"/>
<path d="M40.5855 53.7561H39.1221V55.2195H40.5855V53.7561Z" fill="#000055"/>
<path d="M46.439 53.7561H44.9756V55.2195H46.439V53.7561Z" fill="#000055"/>
<path d="M49.3658 53.7561H47.9023V55.2195H49.3658V53.7561Z" fill="#000055"/>
<path d="M50.8291 53.7561H49.3657V55.2195H50.8291V53.7561Z" fill="#000055"/>
<path d="M52.2925 53.7561H50.8291V55.2195H52.2925V53.7561Z" fill="#000055"/>
<path d="M53.7559 53.7561H52.2925V55.2195H53.7559V53.7561Z" fill="#000055"/>
<path d="M55.2193 53.7561H53.7559V55.2195H55.2193V53.7561Z" fill="#000055"/>
<path d="M56.6831 53.7561H55.2197V55.2195H56.6831V53.7561Z" fill="#000055"/>
<path d="M20.0977 55.2195H18.6343V56.6829H20.0977V55.2195Z" fill="#000055"/>
<path d="M23.0244 55.2195H21.561V56.6829H23.0244V55.2195Z" fill="#000055"/>
<path d="M27.4146 55.2195H25.9512V56.6829H27.4146V55.2195Z" fill="#000055"/>
<path d="M30.3413 55.2195H28.8779V56.6829H30.3413V55.2195Z" fill="#000055"/>
<path d="M34.7315 55.2195H33.2681V56.6829H34.7315V55.2195Z" fill="#000055"/>
<path d="M37.6587 55.2195H36.1953V56.6829H37.6587V55.2195Z" fill="#000055"/>
<path d="M39.1221 55.2195H37.6587V56.6829H39.1221V55.2195Z" fill="#000055"/>
<path d="M42.0489 55.2195H40.5854V56.6829H42.0489V55.2195Z" fill="#000055"/>
<path d="M44.9756 55.2195H43.5122V56.6829H44.9756V55.2195Z" fill="#000055"/>
<path d="M46.439 55.2195H44.9756V56.6829H46.439V55.2195Z" fill="#000055"/>
<path d="M50.8291 55.2195H49.3657V56.6829H50.8291V55.2195Z" fill="#000055"/>
<path d="M52.2925 55.2195H50.8291V56.6829H52.2925V55.2195Z" fill="#000055"/>
<path d="M55.2193 55.2195H53.7559V56.6829H55.2193V55.2195Z" fill="#000055"/>
<path d="M58.1465 55.2195H56.6831V56.6829H58.1465V55.2195Z" fill="#000055"/>
<path d="M61.0733 55.2195H59.6099V56.6829H61.0733V55.2195Z" fill="#000055"/>
<path d="M20.0977 56.683H18.6343V58.1464H20.0977V56.683Z" fill="#000055"/>
<path d="M21.5611 56.683H20.0977V58.1464H21.5611V56.683Z" fill="#000055"/>
<path d="M28.878 56.683H27.4146V58.1464H28.878V56.683Z" fill="#000055"/>
<path d="M31.8047 56.683H30.3413V58.1464H31.8047V56.683Z" fill="#000055"/>
<path d="M33.2681 56.683H31.8047V58.1464H33.2681V56.683Z" fill="#000055"/>
<path d="M34.7315 56.683H33.2681V58.1464H34.7315V56.683Z" fill="#000055"/>
<path d="M36.1953 56.683H34.7319V58.1464H36.1953V56.683Z" fill="#000055"/>
<path d="M37.6587 56.683H36.1953V58.1464H37.6587V56.683Z" fill="#000055"/>
<path d="M40.5855 56.683H39.1221V58.1464H40.5855V56.683Z" fill="#000055"/>
<path d="M42.0489 56.683H40.5854V58.1464H42.0489V56.683Z" fill="#000055"/>
<path d="M44.9756 56.683H43.5122V58.1464H44.9756V56.683Z" fill="#000055"/>
<path d="M49.3658 56.683H47.9023V58.1464H49.3658V56.683Z" fill="#000055"/>
<path d="M52.2925 56.683H50.8291V58.1464H52.2925V56.683Z" fill="#000055"/>
<path d="M55.2193 56.683H53.7559V58.1464H55.2193V56.683Z" fill="#000055"/>
<path d="M56.6831 56.683H55.2197V58.1464H56.6831V56.683Z" fill="#000055"/>
<path d="M58.1465 56.683H56.6831V58.1464H58.1465V56.683Z" fill="#000055"/>
<path d="M23.0244 58.1464H21.561V59.6098H23.0244V58.1464Z" fill="#000055"/>
<path d="M25.9512 58.1464H24.4878V59.6098H25.9512V58.1464Z" fill="#000055"/>
<path d="M31.8047 58.1464H30.3413V59.6098H31.8047V58.1464Z" fill="#000055"/>
<path d="M37.6587 58.1464H36.1953V59.6098H37.6587V58.1464Z" fill="#000055"/>
<path d="M42.0489 58.1464H40.5854V59.6098H42.0489V58.1464Z" fill="#000055"/>
<path d="M43.5122 58.1464H42.0488V59.6098H43.5122V58.1464Z" fill="#000055"/>
<path d="M44.9756 58.1464H43.5122V59.6098H44.9756V58.1464Z" fill="#000055"/>
<path d="M52.2925 58.1464H50.8291V59.6098H52.2925V58.1464Z" fill="#000055"/>
<path d="M53.7559 58.1464H52.2925V59.6098H53.7559V58.1464Z" fill="#000055"/>
<path d="M55.2193 58.1464H53.7559V59.6098H55.2193V58.1464Z" fill="#000055"/>
<path d="M56.6831 58.1464H55.2197V59.6098H56.6831V58.1464Z" fill="#000055"/>
<path d="M58.1465 58.1464H56.6831V59.6098H58.1465V58.1464Z" fill="#000055"/>
<path d="M20.0977 59.6097H18.6343V61.0732H20.0977V59.6097Z" fill="#000055"/>
<path d="M28.878 59.6097H27.4146V61.0732H28.878V59.6097Z" fill="#000055"/>
<path d="M30.3413 59.6097H28.8779V61.0732H30.3413V59.6097Z" fill="#000055"/>
<path d="M33.2681 59.6097H31.8047V61.0732H33.2681V59.6097Z" fill="#000055"/>
<path d="M36.1953 59.6097H34.7319V61.0732H36.1953V59.6097Z" fill="#000055"/>
<path d="M43.5122 59.6097H42.0488V61.0732H43.5122V59.6097Z" fill="#000055"/>
<path d="M44.9756 59.6097H43.5122V61.0732H44.9756V59.6097Z" fill="#000055"/>
<path d="M46.439 59.6097H44.9756V61.0732H46.439V59.6097Z" fill="#000055"/>
<path d="M50.8291 59.6097H49.3657V61.0732H50.8291V59.6097Z" fill="#000055"/>
<path d="M52.2925 59.6097H50.8291V61.0732H52.2925V59.6097Z" fill="#000055"/>
<path d="M55.2193 59.6097H53.7559V61.0732H55.2193V59.6097Z" fill="#000055"/>
<path d="M56.6831 59.6097H55.2197V61.0732H56.6831V59.6097Z" fill="#000055"/>
<path d="M58.1465 59.6097H56.6831V61.0732H58.1465V59.6097Z" fill="#000055"/>
<path d="M59.6099 59.6097H58.1465V61.0732H59.6099V59.6097Z" fill="#000055"/>
<path d="M61.0733 59.6097H59.6099V61.0732H61.0733V59.6097Z" fill="#000055"/>
<path d="M15.6342 6.92688H6.92676V17.1708H17.1707V6.92688H15.6342ZM15.6342 15.6343H8.46325V8.46338H15.6342V15.6343Z" fill="#000055"/>
<path d="M59.5365 6.92688H50.8291V17.1708H61.073V6.92688H59.5365ZM59.5365 15.6343H52.3656V8.46338H59.5365V15.6343Z" fill="#000055"/>
<path d="M15.6342 50.8292H6.92676V61.0731H17.1707V50.8292H15.6342ZM15.6342 59.5366H8.46325V52.3657H15.6342V59.5366Z" fill="#000055"/>
<path d="M14.2438 9.85364H9.85352V14.2439H14.2438V9.85364Z" fill="#000055"/>
<path d="M58.1461 9.85364H53.7559V14.2439H58.1461V9.85364Z" fill="#000055"/>
<path d="M14.2438 53.7561H9.85352V58.1463H14.2438V53.7561Z" fill="#000055"/>
</svg>
